<svg xmlns="http://www.w3.org/2000/svg" width="32" height="32" viewBox="0 0 32 32" fill="none"><g clip-path="url(#clip0_8577_3955)"><path d="M27.1398 26.5591C25.3958 24.8442 23.6466 23.1249 21.9507 21.4563C21.2017 21.8873 20.4526 22.4224 19.6234 22.7661C18.8049 23.1053 17.9062 23.2513 16.9817 23.4989C16.9817 23.9467 16.9817 24.4881 16.9817 25.0294C16.9817 25.4514 16.9942 25.8744 16.9763 26.2955C16.9674 26.5092 17.0396 26.5982 17.2409 26.6712C18.0024 26.9499 18.4379 27.6382 18.4059 28.4654C18.3765 29.2053 17.8581 29.8588 17.126 30.0796C16.1988 30.3583 15.2146 29.8526 14.9011 28.9355C14.5938 28.0371 15.0427 27.0212 15.9343 26.6908C16.1961 26.5938 16.2602 26.4763 16.2558 26.2189C16.2406 25.2867 16.2496 24.3545 16.2496 23.384C14.3426 23.2629 12.678 22.5827 11.2627 21.3174C9.79754 22.8044 8.34931 24.2726 6.89663 25.7462C8.34575 27.6702 7.72762 30.0119 6.23218 31.1837C4.70736 32.3785 2.50651 32.2494 1.1233 30.8685C-0.261692 29.4866 -0.377479 27.25 0.840067 25.7337C2.03624 24.2432 4.37514 23.6743 6.29275 25.1345C7.74098 23.6645 9.18832 22.1953 10.6588 20.7031C9.44038 19.3248 8.75902 17.6295 8.67084 15.6502C7.64924 15.6502 6.64278 15.6502 5.6105 15.6502C5.40208 16.3064 4.96387 16.7819 4.23352 16.9448C3.29119 17.1541 2.37915 16.6011 2.11996 15.668C1.86345 14.7438 2.364 13.7956 3.27516 13.4786C4.17206 13.167 5.1901 13.6166 5.5152 14.5168C5.62564 14.8222 5.77616 14.88 6.06118 14.8756C6.92602 14.8605 7.79086 14.8702 8.68954 14.8702C8.83383 13.0833 9.51431 11.4761 10.7425 10.105C8.98436 8.3723 7.23686 6.65121 5.48046 4.92033C4.26826 5.74303 2.62319 5.52934 1.70313 4.23029C0.922009 3.12712 1.09569 1.63396 2.09057 0.715099C3.08188 -0.200205 4.57732 -0.241162 5.62831 0.617158C6.58667 1.3989 7.02577 2.93124 6.08612 4.30864C7.83183 6.02973 9.57843 7.74993 11.285 9.43185C12.0109 9.01604 12.775 8.52901 13.5829 8.13012C14.3952 7.72946 15.2903 7.58254 16.2202 7.52022C16.2202 6.94326 16.2202 6.37164 16.2202 5.76529C15.6635 5.60325 15.2039 5.28093 14.959 4.71198C14.7915 4.32289 14.755 3.92133 14.8663 3.50731C15.0854 2.69262 15.8452 2.15305 16.7243 2.19223C17.5348 2.22873 18.2562 2.86802 18.3889 3.66757C18.5439 4.60247 18.0683 5.3299 16.9986 5.77954C16.9986 6.34849 16.9986 6.92189 16.9986 7.51844C18.8922 7.64131 20.5435 8.32066 21.957 9.58588C23.7535 7.76062 25.5437 5.94159 27.3446 4.11187C26.6268 3.00247 26.8815 1.57698 27.9895 0.779206C28.9398 0.0953991 30.2767 0.234297 31.0961 1.08193C31.9138 1.92868 31.9966 3.27225 31.2974 4.19913C30.706 4.98266 29.3816 5.62461 27.9628 4.73335C26.1707 6.54882 24.3796 8.3634 22.5662 10.2011C23.1255 10.8377 23.6252 11.6204 23.9743 12.493C24.3235 13.3664 24.5114 14.2755 24.5435 15.303C24.9051 15.303 25.2667 15.3172 25.6256 15.2905C25.6951 15.2852 25.769 15.1231 25.8127 15.0216C26.1128 14.3129 26.8049 13.8784 27.5896 13.9149C28.344 13.9505 28.987 14.4553 29.2106 15.1863C29.4938 16.115 28.995 17.0953 28.0768 17.4149C27.1656 17.7319 26.136 17.2725 25.8162 16.3634C25.7174 16.0829 25.582 16.0081 25.3201 16.0215C25.0672 16.034 24.8125 16.0242 24.5319 16.0242C24.3698 17.8441 23.6938 19.4405 22.4709 20.8028C24.2335 22.5417 25.9792 24.2628 27.7321 25.9928C29.3148 24.9876 30.8138 25.7052 31.4675 26.5973C32.2665 27.6863 32.1543 29.1803 31.1905 30.1268C30.242 31.059 28.7501 31.1569 27.6831 30.3565C26.5119 29.4777 26.307 28.0789 27.1398 26.5591ZM16.6317 8.25834C12.7216 8.21649 9.45463 11.4147 9.40386 15.335C9.3522 19.3114 12.5506 22.6094 16.5025 22.6539C20.4909 22.6993 23.7641 19.5135 23.8042 15.5487C23.8461 11.5171 20.6824 8.30197 16.6317 8.25834ZM3.85142 31.2691C5.5811 31.2665 6.9946 29.8481 6.98302 28.127C6.97144 26.4157 5.56507 25.0169 3.8532 25.0125C2.13065 25.008 0.720717 26.4273 0.726952 28.1591C0.733187 29.8748 2.13688 31.2718 3.85142 31.2691ZM5.87057 2.69173C5.86879 1.60191 4.9897 0.727564 3.90041 0.732906C2.83161 0.739139 1.95786 1.61081 1.94717 2.68282C1.93737 3.7575 2.82982 4.65856 3.90843 4.66123C4.99059 4.66479 5.87235 3.77976 5.87057 2.69173ZM29.3077 26.2483C28.2175 26.2465 27.3357 27.1253 27.3393 28.2098C27.342 29.2934 28.2317 30.1722 29.3184 30.1633C30.3952 30.1553 31.2627 29.2881 31.268 28.216C31.2725 27.1271 30.3979 26.2492 29.3077 26.2483ZM29.3887 4.42617C30.2945 4.42261 31.0356 3.67915 31.0436 2.76652C31.0516 1.8521 30.2865 1.07659 29.3771 1.07659C28.4562 1.07748 27.6938 1.82985 27.6866 2.74426C27.6786 3.67737 28.441 4.43062 29.3887 4.42617ZM17.6755 28.3612C17.6791 27.7646 17.1946 27.2714 16.6103 27.2767C16.0171 27.282 15.5317 27.7709 15.5352 28.3594C15.5388 28.9408 16.0046 29.4074 16.5916 29.418C17.1954 29.4287 17.6711 28.964 17.6755 28.3612ZM16.6219 2.92233C16.018 2.91966 15.537 3.38889 15.5352 3.98366C15.5326 4.57308 16.0189 5.05923 16.6129 5.06279C17.1865 5.06546 17.6666 4.59 17.6755 4.01037C17.6835 3.40135 17.2231 2.925 16.6219 2.92233ZM2.78707 15.181C2.7844 15.7802 3.25646 16.2583 3.8541 16.2628C4.43927 16.2672 4.93003 15.7713 4.92557 15.1801C4.92112 14.5987 4.44995 14.1268 3.87013 14.1223C3.26002 14.1197 2.78974 14.5791 2.78707 15.181ZM28.5515 15.7357C28.5631 15.1302 28.0981 14.6468 27.5014 14.6432C26.902 14.6396 26.4139 15.1142 26.4094 15.7054C26.405 16.2886 26.8966 16.7837 27.4862 16.789C28.0572 16.7926 28.5408 16.3144 28.5515 15.7357Z" fill="black"></path><path d="M13.5989 19.862C12.8454 19.8059 12.2005 19.4053 11.8167 18.6369C11.4399 17.8818 11.5601 17.1615 12.0936 16.5258C12.865 15.6069 13.6318 14.6818 14.4459 13.8021C15.1424 13.0498 16.2103 13.0177 17.0484 13.6472C17.8759 14.2687 18.1324 15.3362 17.6612 16.1972C17.6399 16.2364 17.6158 16.2738 17.5935 16.3121C17.4617 16.5356 17.2729 16.6415 17.0386 16.4982C16.8169 16.3628 16.8382 16.1634 16.9558 15.9462C17.3237 15.2668 17.1731 14.6257 16.5577 14.1966C16.0117 13.8164 15.3695 13.852 14.9278 14.347C14.144 15.2258 13.3771 16.1207 12.6289 17.0297C12.172 17.5853 12.2745 18.3128 12.8258 18.7838C13.3842 19.261 14.0905 19.2441 14.5911 18.7214C14.8823 18.4169 15.1478 18.0866 15.4212 17.7652C15.5833 17.5738 15.773 17.4616 15.9939 17.6414C16.2308 17.8346 16.1489 18.0501 15.9752 18.2487C15.6902 18.5754 15.4167 18.912 15.121 19.2281C14.7256 19.6519 14.2224 19.8656 13.5989 19.862Z" fill="black"></path><path d="M17.4327 17.6778C15.8803 17.6787 14.8337 16.0039 15.5676 14.6933C15.6932 14.4689 15.8411 14.2472 16.1386 14.403C16.4298 14.5562 16.3532 14.7859 16.2232 15.0281C15.9043 15.6193 16.0682 16.2612 16.6266 16.6753C17.1815 17.0866 17.8504 17.0537 18.31 16.5382C19.0858 15.6674 19.8455 14.7814 20.5857 13.8813C21.0533 13.3123 20.9464 12.5733 20.3808 12.1032C19.8161 11.634 19.0893 11.6758 18.5923 12.2181C18.3225 12.5128 18.0686 12.8226 17.8086 13.1262C17.6518 13.3088 17.463 13.396 17.2599 13.2277C17.0444 13.0497 17.088 12.8413 17.2581 12.6463C17.5503 12.3116 17.8255 11.9607 18.1354 11.6429C18.8889 10.87 20.045 10.8442 20.8698 11.5636C21.7124 12.2982 21.878 13.4299 21.2011 14.2757C20.4378 15.2293 19.6282 16.1455 18.8204 17.0626C18.4605 17.4695 17.9876 17.6796 17.4327 17.6778Z" fill="black"></path></g><defs><clipPath id="clip0_8577_3955"><rect width="32" height="32" fill="white"></rect></clipPath></defs></svg>