<svg xmlns="http://www.w3.org/2000/svg" width="47" height="47" viewBox="0 0 47 47" fill="none"><g clip-path="url(#clip0_8546_3687)"><path d="M23.4216 37.591C13.0356 37.5635 4.66921 29.1089 4.69537 18.6668C4.72023 8.31748 13.2187 -0.0390891 23.6793 0.000137537C33.9332 0.0380566 42.3506 8.545 42.3074 18.8276C42.2629 29.2462 33.8377 37.6184 23.4216 37.591ZM34.4747 15.0867C34.4708 14.2368 33.8848 13.651 32.9155 13.5111C31.2216 13.2666 29.5289 13.009 27.8324 12.7736C27.5407 12.7331 27.3863 12.6115 27.2595 12.3461C26.5126 10.7888 25.7408 9.24454 24.99 7.68855C24.6878 7.06223 24.2339 6.66474 23.5197 6.6582C22.782 6.65166 22.3176 7.057 22.0076 7.70163C21.2646 9.24323 20.4981 10.7718 19.7603 12.316C19.6178 12.6154 19.432 12.7514 19.1115 12.7959C17.4477 13.0247 15.7877 13.2796 14.1239 13.5059C13.4031 13.6039 12.8433 13.8929 12.6078 14.6212C12.3789 15.326 12.6366 15.8843 13.1559 16.3733C14.3672 17.5148 15.5497 18.6864 16.7766 19.8109C17.1285 20.1325 17.1848 20.4398 17.105 20.8765C16.8067 22.4953 16.5425 24.1193 16.26 25.7406C16.1396 26.4323 16.243 27.0547 16.8512 27.4849C17.4555 27.9125 18.069 27.8131 18.693 27.4784C20.1423 26.6991 21.6112 25.9525 23.054 25.1601C23.4046 24.9679 23.6623 25.0006 23.9893 25.1797C25.4478 25.9773 26.9167 26.7579 28.387 27.5333C28.6133 27.6536 28.8631 27.7673 29.113 27.7987C30.2732 27.9465 31.0398 27.005 30.8213 25.738C30.527 24.0356 30.251 22.3305 29.941 20.632C29.8887 20.347 29.9632 20.1835 30.1555 19.9965C31.3969 18.791 32.6251 17.5737 33.8639 16.3668C34.2249 16.0124 34.4852 15.6176 34.4747 15.0867Z" fill="#28AAFF"></path><path d="M17.2868 37.533C16.6968 38.5529 16.1357 39.5244 15.5745 40.4959C14.8813 41.6949 14.1945 42.8979 13.4947 44.093C12.7583 45.3495 11.3456 45.3548 10.6104 44.1008C9.7942 42.7096 8.98058 41.3157 8.1879 39.9114C8.02831 39.629 7.85303 39.5388 7.53517 39.5414C5.93541 39.5584 4.33696 39.5518 2.7372 39.5479C1.24339 39.5453 0.534423 38.3293 1.27871 37.0348C2.80653 34.3792 4.34612 31.7301 5.88178 29.0796C5.93672 28.9842 6.00343 28.894 6.09631 28.7554C8.86024 32.9108 12.5647 35.8162 17.2868 37.533Z" fill="#28AAFF"></path><path d="M29.7422 37.5311C34.4264 35.83 38.1386 32.9285 40.9 28.7744C40.9745 28.8686 41.0425 28.9339 41.0883 29.0137C42.6488 31.7059 44.2133 34.3969 45.7633 37.0944C46.3572 38.1287 45.8863 39.2754 44.7875 39.512C44.5992 39.5526 44.399 39.5473 44.2028 39.5487C42.6358 39.5513 41.07 39.5591 39.503 39.5421C39.1707 39.5382 38.9797 39.631 38.8123 39.9292C38.0353 41.306 37.2361 42.6698 36.4382 44.0336C35.6507 45.379 34.2655 45.379 33.4832 44.0336C32.3047 42.0042 31.1327 39.9723 29.9593 37.9404C29.89 37.8161 29.8259 37.6867 29.7422 37.5311Z" fill="#28AAFF"></path><mask id="path-4-inside-1_8546_3687" fill="white"><path d="M34.4763 15.0868C34.4868 15.6163 34.2265 16.0125 33.8629 16.3669C32.6241 17.575 31.3959 18.7924 30.1545 19.9966C29.9622 20.1836 29.889 20.3471 29.94 20.6321C30.25 22.3306 30.526 24.037 30.8203 25.7381C31.0388 27.0051 30.2735 27.9466 29.112 27.7988C28.8621 27.7674 28.6123 27.6524 28.386 27.5334C26.9157 26.758 25.4468 25.9774 23.9883 25.1798C23.6613 25.0006 23.4023 24.9679 23.053 25.1602C21.6102 25.9525 20.1426 26.6991 18.692 27.4785C18.0693 27.8132 17.4545 27.9126 16.8502 27.485C16.242 27.0548 16.1386 26.4324 16.259 25.7407C16.5415 24.1193 16.8057 22.4941 17.104 20.8766C17.1851 20.4399 17.1275 20.1326 16.7756 19.811C15.5487 18.6865 14.3662 17.5149 13.1549 16.3734C12.6356 15.8844 12.3792 15.3261 12.6068 14.6213C12.8423 13.8943 13.4022 13.604 14.1229 13.5059C15.7867 13.2797 17.4467 13.0261 19.1105 12.7959C19.431 12.7515 19.6168 12.6155 19.7593 12.3161C20.4958 10.7718 21.2636 9.24331 22.0066 7.70171C22.3166 7.05709 22.781 6.65174 23.5187 6.65828C24.2342 6.66482 24.6868 7.06232 24.989 7.68863C25.7398 9.24331 26.5129 10.7888 27.2585 12.3461C27.3853 12.6103 27.5397 12.7332 27.8314 12.7737C29.5266 13.0091 31.2193 13.2667 32.9145 13.5112C33.8864 13.6524 34.4724 14.2382 34.4763 15.0868ZM23.5017 11.725C23.0046 12.7188 22.5298 13.6027 22.1165 14.5154C21.762 15.2973 21.1917 15.6778 20.3467 15.768C19.397 15.8687 18.4552 16.0426 17.4323 16.1956C18.0275 16.797 18.5232 17.4103 19.1288 17.8836C20.2093 18.727 20.4984 19.7325 20.1217 21.0322C19.9124 21.7527 19.8614 22.5202 19.724 23.3636C20.6868 22.8589 21.5618 22.4287 22.4082 21.9488C23.1184 21.5474 23.7829 21.5592 24.4893 21.9553C25.3382 22.4313 26.212 22.8628 27.108 23.3309C27.108 23.1596 27.1224 23.0458 27.1054 22.936C26.9641 22.0351 26.8268 21.1316 26.6685 20.2333C26.5456 19.5377 26.6973 18.9545 27.231 18.4616C27.8301 17.9072 28.3978 17.3214 28.9773 16.7474C29.1434 16.5826 29.3056 16.4126 29.5253 16.189C28.5181 16.0321 27.6221 15.8595 26.7169 15.7615C25.8222 15.6647 25.2126 15.2751 24.8451 14.4251C24.4631 13.5373 23.987 12.6887 23.5017 11.725Z"></path></mask><path d="M34.4763 15.0868C34.4868 15.6163 34.2265 16.0125 33.8629 16.3669C32.6241 17.575 31.3959 18.7924 30.1545 19.9966C29.9622 20.1836 29.889 20.3471 29.94 20.6321C30.25 22.3306 30.526 24.037 30.8203 25.7381C31.0388 27.0051 30.2735 27.9466 29.112 27.7988C28.8621 27.7674 28.6123 27.6524 28.386 27.5334C26.9157 26.758 25.4468 25.9774 23.9883 25.1798C23.6613 25.0006 23.4023 24.9679 23.053 25.1602C21.6102 25.9525 20.1426 26.6991 18.692 27.4785C18.0693 27.8132 17.4545 27.9126 16.8502 27.485C16.242 27.0548 16.1386 26.4324 16.259 25.7407C16.5415 24.1193 16.8057 22.4941 17.104 20.8766C17.1851 20.4399 17.1275 20.1326 16.7756 19.811C15.5487 18.6865 14.3662 17.5149 13.1549 16.3734C12.6356 15.8844 12.3792 15.3261 12.6068 14.6213C12.8423 13.8943 13.4022 13.604 14.1229 13.5059C15.7867 13.2797 17.4467 13.0261 19.1105 12.7959C19.431 12.7515 19.6168 12.6155 19.7593 12.3161C20.4958 10.7718 21.2636 9.24331 22.0066 7.70171C22.3166 7.05709 22.781 6.65174 23.5187 6.65828C24.2342 6.66482 24.6868 7.06232 24.989 7.68863C25.7398 9.24331 26.5129 10.7888 27.2585 12.3461C27.3853 12.6103 27.5397 12.7332 27.8314 12.7737C29.5266 13.0091 31.2193 13.2667 32.9145 13.5112C33.8864 13.6524 34.4724 14.2382 34.4763 15.0868ZM23.5017 11.725C23.0046 12.7188 22.5298 13.6027 22.1165 14.5154C21.762 15.2973 21.1917 15.6778 20.3467 15.768C19.397 15.8687 18.4552 16.0426 17.4323 16.1956C18.0275 16.797 18.5232 17.4103 19.1288 17.8836C20.2093 18.727 20.4984 19.7325 20.1217 21.0322C19.9124 21.7527 19.8614 22.5202 19.724 23.3636C20.6868 22.8589 21.5618 22.4287 22.4082 21.9488C23.1184 21.5474 23.7829 21.5592 24.4893 21.9553C25.3382 22.4313 26.212 22.8628 27.108 23.3309C27.108 23.1596 27.1224 23.0458 27.1054 22.936C26.9641 22.0351 26.8268 21.1316 26.6685 20.2333C26.5456 19.5377 26.6973 18.9545 27.231 18.4616C27.8301 17.9072 28.3978 17.3214 28.9773 16.7474C29.1434 16.5826 29.3056 16.4126 29.5253 16.189C28.5181 16.0321 27.6221 15.8595 26.7169 15.7615C25.8222 15.6647 25.2126 15.2751 24.8451 14.4251C24.4631 13.5373 23.987 12.6887 23.5017 11.725Z" fill="#EB87D2"></path><path d="M34.4763 15.0868L-12.5231 15.3041L-12.5215 15.6598L-12.5145 16.0153L34.4763 15.0868ZM33.8629 16.3669L1.06182 -17.2946L1.05412 -17.2871L1.04642 -17.2795L33.8629 16.3669ZM30.1545 19.9966L-2.57165 -13.7376L-2.59155 -13.7183L-2.61143 -13.699L30.1545 19.9966ZM29.94 20.6321L-16.3249 28.9121L-16.3107 28.9916L-16.2962 29.0711L29.94 20.6321ZM30.8203 25.7381L77.137 17.7527L77.1346 17.7391L77.1323 17.7256L30.8203 25.7381ZM29.112 27.7988L35.0427 -18.8255L35.0061 -18.8302L34.9694 -18.8348L29.112 27.7988ZM28.386 27.5334L6.46146 69.1064L6.48698 69.1198L6.51251 69.1333L28.386 27.5334ZM23.9883 25.1798L1.4082 66.4004L1.4227 66.4083L1.43721 66.4163L23.9883 25.1798ZM23.053 25.1602L45.6778 66.3563L45.696 66.3463L45.7142 66.3363L23.053 25.1602ZM18.692 27.4785L-3.55061 -13.9253L-3.55694 -13.9219L-3.56326 -13.9185L18.692 27.4785ZM16.8502 27.485L43.9961 -10.8829L43.9894 -10.8877L16.8502 27.485ZM16.259 25.7407L-30.0433 17.672L-30.0455 17.6846L16.259 25.7407ZM17.104 20.8766L-29.106 12.2954L-29.1115 12.3247L-29.1169 12.354L17.104 20.8766ZM16.7756 19.811L-14.98 54.4603L-14.9579 54.4806L-14.9358 54.5008L16.7756 19.811ZM13.1549 16.3734L45.3892 -17.8312L45.3829 -17.8371L45.3765 -17.8431L13.1549 16.3734ZM12.6068 14.6213L-32.1066 0.140057L-32.1127 0.158704L-32.1187 0.177357L12.6068 14.6213ZM14.1229 13.5059L7.79133 -33.0656L7.78631 -33.065L14.1229 13.5059ZM19.1105 12.7959L25.5498 59.3527L25.5592 59.3514L25.5686 59.3501L19.1105 12.7959ZM19.7593 12.3161L-22.6634 -7.91536L-22.6694 -7.9027L-22.6755 -7.89004L19.7593 12.3161ZM22.0066 7.70171L64.3459 28.1072L64.3544 28.0894L64.363 28.0716L22.0066 7.70171ZM23.5187 6.65828L23.9481 -40.3398L23.9352 -40.3399L23.5187 6.65828ZM24.989 7.68863L-17.3422 28.111L-17.338 28.1196L-17.3338 28.1283L24.989 7.68863ZM27.2585 12.3461L-15.1334 32.6423L-15.1201 32.67L-15.1068 32.6978L27.2585 12.3461ZM27.8314 12.7737L21.3625 59.3264L21.3681 59.3272L27.8314 12.7737ZM32.9145 13.5112L39.6727 -33.0004L39.6484 -33.0039L39.6241 -33.0075L32.9145 13.5112ZM23.5017 11.725L65.4794 -9.41441L23.3597 -93.0535L-18.5331 -9.30054L23.5017 11.725ZM22.1165 14.5154L64.9229 33.9218L64.9265 33.9137L64.9302 33.9056L22.1165 14.5154ZM20.3467 15.768L25.3018 62.5061L25.3191 62.5042L25.3365 62.5024L20.3467 15.768ZM17.4323 16.1956L10.4804 -30.2874L-81.1269 -16.5868L-15.9764 49.254L17.4323 16.1956ZM19.1288 17.8836L-9.81339 54.9153L-9.80205 54.9242L-9.79072 54.933L19.1288 17.8836ZM20.1217 21.0322L65.2559 34.1434L65.2598 34.1301L65.2636 34.1167L20.1217 21.0322ZM19.724 23.3636L-26.6649 15.809L-41.7892 108.679L41.5468 64.9901L19.724 23.3636ZM22.4082 21.9488L-0.716668 -18.9687L-0.745411 -18.9525L-0.774132 -18.9362L22.4082 21.9488ZM24.4893 21.9553L1.49708 62.9475L1.50482 62.9519L24.4893 21.9553ZM27.108 23.3309L5.345 64.9887L74.108 100.912V23.3309H27.108ZM27.1054 22.936L73.5521 15.745L73.5451 15.7L73.538 15.6549L27.1054 22.936ZM26.6685 20.2333L72.9555 12.0777L72.9533 12.065L72.951 12.0524L26.6685 20.2333ZM27.231 18.4616L59.121 52.9873L59.1372 52.9723L59.1535 52.9573L27.231 18.4616ZM28.9773 16.7474L62.0537 50.1382L62.0634 50.1286L62.0732 50.1189L28.9773 16.7474ZM29.5253 16.189L63.0457 49.1342L127.218 -16.1589L36.7599 -30.2508L29.5253 16.189ZM26.7169 15.7615L31.7792 -30.9651L31.7703 -30.9661L26.7169 15.7615ZM24.8451 14.4251L-18.3291 32.9992L-18.3113 33.0404L-18.2935 33.0816L24.8451 14.4251ZM-12.5145 16.0153C-12.6764 7.81968 -10.6208 0.308209 -7.36771 -5.93252C-4.37197 -11.6796 -0.836988 -15.4443 1.06182 -17.2946L66.6639 50.0283C71.4119 45.4017 81.8444 33.2497 81.4672 14.1582L-12.5145 16.0153ZM1.04642 -17.2795C-0.738084 -15.5391 -1.20376 -15.0646 -2.57165 -13.7376L62.8807 53.7309C63.9955 52.6494 65.9863 50.6891 66.6793 50.0133L1.04642 -17.2795ZM-2.61143 -13.699C-5.23738 -11.1455 -10.8265 -5.19011 -14.2628 4.34973C-17.8683 14.3594 -17.3354 23.2661 -16.3249 28.9121L76.2049 12.3521C77.1643 17.7131 77.7084 26.3955 74.1748 36.2055C70.8105 45.5456 65.3541 51.3257 62.9204 53.6922L-2.61143 -13.699ZM-16.2962 29.0711C-16.0257 30.5531 -15.9148 31.3047 -15.4917 33.7506L77.1323 17.7256C76.9668 16.7692 76.5257 14.1082 76.1762 12.1931L-16.2962 29.0711ZM-15.4963 33.7235C-17.2379 23.6223 -15.8117 9.57546 -5.79001 -2.58783C4.93579 -15.6057 20.8594 -20.6297 35.0427 -18.8255L23.1812 74.4231C38.5261 76.375 55.4131 70.9543 66.7573 57.1858C77.3973 44.272 79.097 29.1209 77.137 17.7527L-15.4963 33.7235ZM34.9694 -18.8348C39.8256 -18.2248 43.5839 -16.9597 45.8147 -16.0899C48.0632 -15.2131 49.7129 -14.3539 50.2595 -14.0665L6.51251 69.1333C7.23972 69.5156 13.9464 73.2632 23.2545 74.4324L34.9694 -18.8348ZM50.3106 -14.0396C48.9096 -14.7785 47.6861 -15.4296 46.5394 -16.0567L1.43721 66.4163C3.20745 67.3844 4.92188 68.2944 6.46146 69.1064L50.3106 -14.0396ZM46.5684 -16.0408C43.1768 -17.8987 35.7632 -21.4785 25.5855 -21.9243C14.7647 -22.3982 6.0842 -19.1487 0.391875 -16.0159L45.7142 66.3363C40.3711 69.2768 31.9948 72.4465 21.4725 71.9857C11.5934 71.553 4.47281 68.0791 1.4082 66.4004L46.5684 -16.0408ZM0.428267 -16.036C-1.22808 -15.1263 -0.394399 -15.6208 -3.55061 -13.9253L40.9345 68.8822C41.4219 68.6204 41.8857 68.378 42.7496 67.9237C43.5074 67.5253 44.5565 66.9721 45.6778 66.3563L0.428267 -16.036ZM-3.56326 -13.9185C-0.287388 -15.6796 6.47756 -18.7895 15.7397 -19.1888C26.1269 -19.6366 36.0333 -16.5168 43.9961 -10.8829L-10.2957 65.8529C-1.72859 71.9143 8.78734 75.1983 19.7887 74.724C29.665 74.2981 37.0487 70.9712 40.9472 68.8754L-3.56326 -13.9185ZM43.9894 -10.8877C52.1345 -5.12706 58.4156 3.37716 61.3793 13.4754C64.0223 22.481 63.2247 29.9957 62.5634 33.7968L-30.0455 17.6846C-30.8271 22.1774 -31.6332 30.3491 -28.8165 39.9465C-25.6792 50.6363 -19.0424 59.6669 -10.289 65.8577L43.9894 -10.8877ZM62.5612 33.8094C62.9776 31.42 63.0702 30.78 63.3248 29.3992L-29.1169 12.354C-29.4587 14.2081 -29.8946 16.8187 -30.0433 17.672L62.5612 33.8094ZM63.3139 29.4579C64.011 25.704 65.1298 17.4775 62.349 7.58355C59.3743 -3.00039 53.4403 -10.351 48.4871 -14.8789L-14.9358 54.5008C-19.5371 50.2946 -25.2664 43.2584 -28.1447 33.0177C-30.829 23.467 -29.722 15.6125 -29.106 12.2954L63.3139 29.4579ZM48.5313 -14.8384C47.3545 -15.9169 48.0085 -15.3627 45.3892 -17.8312L-19.0794 50.578C-18.6783 50.9559 -18.3413 51.2824 -17.5824 52.0107C-16.9349 52.632 -16.0108 53.5156 -14.98 54.4603L48.5313 -14.8384ZM45.3765 -17.8431C48.5549 -14.85 53.8106 -8.99965 56.9872 0.123631C60.4748 10.14 60.1478 20.3472 57.3324 29.0652L-32.1187 0.177357C-35.1617 9.6001 -35.4743 20.4388 -31.7856 31.0329C-28.4079 40.7337 -22.7644 47.1078 -19.0667 50.5899L45.3765 -17.8431ZM57.3203 29.1025C54.3693 38.2143 48.3632 46.7675 39.5346 52.7454C31.6646 58.0744 24.1809 59.5705 20.4595 60.0768L7.78631 -33.065C3.34419 -32.4605 -4.77984 -30.7702 -13.1688 -25.0899C-22.5164 -18.7606 -28.9201 -9.69879 -32.1066 0.140057L57.3203 29.1025ZM20.4545 60.0775C21.5169 59.9331 22.5366 59.7855 23.3596 59.6662C24.2435 59.5381 24.9033 59.4422 25.5498 59.3527L12.6712 -33.7609C8.98413 -33.2509 10.5252 -33.4373 7.79133 -33.0656L20.4545 60.0775ZM25.5686 59.3501C31.0274 58.5929 39.2561 56.4859 47.4094 50.4691C55.5096 44.4915 59.9041 37.3316 62.1941 32.5222L-22.6755 -7.89004C-20.528 -12.4 -16.2976 -19.3422 -8.40606 -25.1658C-0.461406 -31.0287 7.51413 -33.0455 12.6525 -33.7583L25.5686 59.3501ZM62.1821 32.5475C63.2013 30.4103 62.8154 31.2827 64.3459 28.1072L-20.3327 -12.7038C-20.6128 -12.1226 -20.8997 -11.5393 -21.3113 -10.7009C-21.6893 -9.9307 -22.1696 -8.95086 -22.6634 -7.91536L62.1821 32.5475ZM64.363 28.0716C62.3405 32.2771 58.2225 39.1002 50.3882 44.8428C41.8712 51.0858 32.1125 53.7363 23.1022 53.6564L23.9352 -40.3399C14.1872 -40.4263 3.82742 -37.5764 -5.18373 -30.9712C-13.5121 -24.8664 -18.0174 -17.5183 -20.3498 -12.6682L64.363 28.0716ZM23.0893 53.6563C14.173 53.5748 4.65607 50.8144 -3.61138 44.6752C-11.2457 39.0062 -15.3096 32.3242 -17.3422 28.111L67.3201 -12.7337C64.9853 -17.5733 60.5441 -24.7672 52.4291 -30.7931C43.6809 -37.2892 33.5799 -40.2518 23.9481 -40.3398L23.0893 53.6563ZM-17.3338 28.1283C-15.9046 31.0877 -16.1306 30.5594 -15.1334 32.6423L69.6503 -7.95004C69.1563 -8.98169 67.3842 -12.601 67.3118 -12.751L-17.3338 28.1283ZM-15.1068 32.6978C-13.1187 36.8362 -8.95768 44.0069 -0.882091 50.1193C7.40039 56.3883 15.8261 58.5571 21.3625 59.3264L34.3003 -33.779C39.5449 -33.0502 47.7477 -30.9631 55.8483 -24.8318C63.7421 -18.857 67.7625 -11.8798 69.6237 -8.00548L-15.1068 32.6978ZM21.3681 59.3272C22.9763 59.5505 23.9502 59.7046 26.205 60.0298L39.6241 -33.0075C38.4884 -33.1713 36.077 -33.5323 34.2946 -33.7798L21.3681 59.3272ZM26.1564 60.0228C19.0362 58.9882 9.20798 55.7045 0.720107 47.1631C-8.29535 38.0908 -12.472 26.3604 -12.5231 15.3041L81.4758 14.8694C81.4208 2.96449 76.9492 -9.48304 67.3967 -19.0957C58.3719 -28.1774 47.7647 -31.8246 39.6727 -33.0004L26.1564 60.0228ZM-18.5331 -9.30054C-18.5702 -9.22647 -18.6235 -9.12113 -18.7307 -8.91103C-18.8124 -8.75088 -18.9935 -8.39694 -19.1551 -8.07772C-19.4939 -7.40856 -20.0728 -6.25368 -20.6973 -4.87491L64.9302 33.9056C64.8162 34.1574 64.7308 34.3347 64.6938 34.4106C64.6594 34.4813 64.655 34.4885 64.7105 34.3789C64.7814 34.2389 64.838 34.1285 64.998 33.8149C65.1326 33.5512 65.325 33.1734 65.5365 32.7506L-18.5331 -9.30054ZM-20.69 -4.89109C-18.036 -10.7451 -13.3119 -17.6771 -5.48244 -23.1411C2.19729 -28.5007 9.91172 -30.385 15.3568 -30.9664L25.3365 62.5024C31.6266 61.8308 40.0487 59.7111 48.3135 53.9433C56.7279 48.071 61.9144 40.5578 64.9229 33.9218L-20.69 -4.89109ZM15.3915 -30.9701C13.7734 -30.7985 12.4131 -30.5917 11.6736 -30.4763C11.3265 -30.4222 10.9242 -30.3575 10.7833 -30.335C10.5744 -30.3017 10.5048 -30.2911 10.4804 -30.2874L24.3842 62.6786C24.8713 62.6057 25.303 62.5373 25.588 62.4918C25.6611 62.4801 25.7323 62.4688 25.7921 62.4592C25.8552 62.4491 25.9064 62.4409 25.9559 62.433C26.0551 62.4172 26.1164 62.4075 26.1603 62.4007C26.2528 62.3862 26.1985 62.3953 26.0659 62.4137C25.9271 62.4328 25.6603 62.4681 25.3018 62.5061L15.3915 -30.9701ZM-15.9764 49.254C-16.3136 48.9132 -16.5402 48.6685 -16.4813 48.7315C-16.4705 48.7431 -16.4559 48.7588 -16.4193 48.7981C-16.3893 48.8302 -16.3353 48.8882 -16.2789 48.9486C-16.1663 49.0692 -15.9775 49.2709 -15.7534 49.5061C-14.9714 50.327 -12.8335 52.555 -9.81339 54.9153L48.0711 -19.1481C49.3379 -18.158 50.3266 -17.2677 51.0066 -16.6239C51.6714 -15.9944 52.1436 -15.502 52.3067 -15.3308C52.3937 -15.2394 52.4457 -15.1836 52.4208 -15.2102C52.4085 -15.2234 52.3935 -15.2394 52.3543 -15.2815C52.3217 -15.3165 52.2669 -15.3753 52.2079 -15.4385C51.9875 -15.6744 51.4758 -16.2213 50.841 -16.8629L-15.9764 49.254ZM-9.79072 54.933C-14.9088 50.938 -21.4236 43.8881 -24.7386 33.1455C-27.9961 22.5894 -26.6177 13.459 -25.0203 7.94776L65.2636 34.1167C67.2378 27.3057 68.66 17.0227 65.082 5.42806C61.4465 -6.35303 54.247 -14.3274 48.0484 -19.1658L-9.79072 54.933ZM-25.0125 7.92099C-26.0328 11.433 -26.4645 14.3492 -26.6191 15.4172C-26.6635 15.7233 -26.6991 15.9849 -26.7203 16.1415C-26.7309 16.2198 -26.7411 16.2958 -26.7468 16.3383C-26.7538 16.3898 -26.7568 16.4123 -26.7591 16.4291C-26.7706 16.514 -26.7328 16.2264 -26.6649 15.809L66.1129 30.9182C66.2495 30.079 66.3452 29.3793 66.3884 29.0606C66.3998 28.9764 66.4103 28.8985 66.4167 28.8502C66.4244 28.7928 66.4276 28.7695 66.4304 28.749C66.4359 28.708 66.4271 28.7739 66.4109 28.8864C66.3806 29.0957 66.2869 29.73 66.1215 30.578C65.9521 31.4472 65.6813 32.6788 65.2559 34.1434L-25.0125 7.92099ZM41.5468 64.9901C41.9794 64.7633 41.7981 64.862 42.7393 64.3741C43.3596 64.0526 44.4009 63.5083 45.5905 62.8338L-0.774132 -18.9362C-0.430881 -19.1308 -0.250318 -19.2201 -0.519843 -19.0803C-0.670454 -19.0023 -0.787499 -18.9423 -1.0912 -18.7859C-1.34883 -18.6532 -1.70465 -18.4695 -2.09877 -18.2629L41.5468 64.9901ZM45.533 62.8663C40.0734 65.9519 32.4095 68.7138 23.1368 68.6519C13.9503 68.5907 6.54736 65.7802 1.49708 62.9475L47.4815 -19.0368C41.7249 -22.2657 33.6365 -25.2802 23.7636 -25.346C13.8045 -25.4124 5.45324 -22.4557 -0.716668 -18.9687L45.533 62.8663ZM1.50482 62.9519C2.6095 63.5712 3.5809 64.0781 4.18289 64.3896C5.1122 64.8704 4.91262 64.7628 5.345 64.9887L48.8711 -18.3269C48.5048 -18.5182 48.1698 -18.6907 47.9302 -18.8139C47.6508 -18.9575 47.5257 -19.0216 47.3791 -19.0975C47.108 -19.2378 47.218 -19.1845 47.4738 -19.0412L1.50482 62.9519ZM74.108 23.3309C74.108 23.9429 74.0949 24.4181 74.0893 24.6078C74.0876 24.6639 74.0842 24.769 74.0875 24.6668C74.0889 24.624 74.0951 24.434 74.1005 24.1978C74.1169 23.4894 74.2181 20.0473 73.5521 15.745L-19.3412 30.127C-19.9903 25.9346 -19.8878 22.6042 -19.8743 22.023C-19.8696 21.8186 -19.8644 21.6613 -19.8641 21.6525C-19.8619 21.5842 -19.8665 21.7244 -19.8693 21.817C-19.8771 22.0796 -19.892 22.6332 -19.892 23.3309H74.108ZM73.538 15.6549C73.4452 15.0634 73.2131 13.5398 72.9555 12.0777L-19.6185 28.3889C-19.5595 28.7234 -19.517 29.0069 -19.3272 30.2171L73.538 15.6549ZM72.951 12.0524C73.8575 17.1808 74.2094 24.5738 71.6805 32.9121C69.0678 41.5268 64.2607 48.24 59.121 52.9873L-4.65904 -16.0642C-10.3324 -10.8239 -15.4823 -3.57269 -18.2735 5.63073C-20.9809 14.5578 -20.6435 22.5902 -19.614 28.4142L72.951 12.0524ZM59.1535 52.9573C60.0501 52.1275 60.7934 51.3949 61.2447 50.9464C62.2946 49.9028 61.4184 50.7675 62.0537 50.1382L-4.0992 -16.6435C-4.34663 -16.3984 -4.57379 -16.1709 -4.71632 -16.0281C-4.88562 -15.8585 -4.95569 -15.7883 -5.02171 -15.7227C-5.07644 -15.6683 -5.06569 -15.6796 -5.01591 -15.7277C-4.96416 -15.7778 -4.85142 -15.8862 -4.69149 -16.0342L59.1535 52.9573ZM62.0732 50.1189C62.4472 49.748 62.7544 49.433 62.8791 49.3052C62.9139 49.2695 62.9472 49.2353 62.9688 49.2131C62.9937 49.1876 63.0082 49.1726 63.022 49.1585C63.0472 49.1326 63.0511 49.1288 63.0457 49.1342L-3.99507 -16.7561C-4.11028 -16.6389 -4.20913 -16.5377 -4.2813 -16.4636C-4.31622 -16.4278 -4.34906 -16.3941 -4.37048 -16.3721C-4.39518 -16.3468 -4.40711 -16.3345 -4.41671 -16.3247C-4.43689 -16.304 -4.41133 -16.3303 -4.36548 -16.3768C-4.31631 -16.4266 -4.23033 -16.5134 -4.11865 -16.6242L62.0732 50.1189ZM36.7599 -30.2508C36.7429 -30.2535 36.6818 -30.2631 36.4807 -30.2965C36.3482 -30.3185 35.9477 -30.3854 35.5995 -30.4419C34.8584 -30.5619 33.4575 -30.7833 31.7792 -30.9651L21.6546 62.488C21.2431 62.4435 20.9291 62.4009 20.7511 62.3755C20.5804 62.3511 20.4942 62.3366 20.5663 62.3482C20.5997 62.3537 20.6519 62.3622 20.7446 62.3776C20.7906 62.3852 20.839 62.3933 20.8995 62.4033C20.9565 62.4128 21.026 62.4244 21.0971 62.4362C21.3755 62.4823 21.8041 62.5531 22.2908 62.6289L36.7599 -30.2508ZM31.7703 -30.9661C36.8542 -30.4163 44.6032 -28.6462 52.4211 -23.2084C60.4993 -17.5895 65.3279 -10.3722 67.9837 -4.23127L-18.2935 33.0816C-15.2701 40.0724 -9.95301 47.9094 -1.25444 53.9599C7.18378 59.8292 15.6849 61.8425 21.6636 62.489L31.7703 -30.9661ZM68.0192 -4.14887C67.2049 -6.04169 66.4287 -7.57265 66.0351 -8.34027C65.8495 -8.70229 65.6354 -9.11315 65.5768 -9.22607C65.4787 -9.41505 65.4662 -9.44053 65.4794 -9.41441L-18.476 32.8645C-18.3448 33.125 -18.2242 33.3611 -18.1202 33.5636C-18.0172 33.7639 -17.9237 33.9445 -17.8516 34.0833C-17.8158 34.1521 -17.7805 34.2201 -17.7531 34.2729C-17.7235 34.3298 -17.7008 34.3735 -17.6797 34.4141C-17.6372 34.4961 -17.6185 34.5325 -17.6109 34.5473C-17.6042 34.5602 -17.6187 34.5322 -17.6469 34.476C-17.6754 34.4189 -17.7233 34.3225 -17.7848 34.195C-17.9064 33.943 -18.1001 33.5314 -18.3291 32.9992L68.0192 -4.14887Z" fill="#FADC32" mask="url(#path-4-inside-1_8546_3687)"></path></g><defs><clipPath id="clip0_8546_3687"><rect width="47" height="47" fill="white"></rect></clipPath></defs></svg>