<svg xmlns="http://www.w3.org/2000/svg" width="26" height="26" viewBox="0 0 26 26" fill="none"><g clip-path="url(#clip0_8577_3980)"><path d="M25.561 -0.00014165C25.8633 0.176025 26.0294 0.415645 25.9961 0.788015C25.5811 5.47939 24.2894 9.87186 21.5724 13.7784C20.6756 15.0684 19.5994 16.1972 18.4137 17.2233C18.3361 17.2901 18.2618 17.3602 18.2342 17.3844C18.4563 18.0298 18.7277 18.6209 18.8604 19.2429C19.1577 20.6347 18.7803 21.8854 17.8752 22.9691C16.697 24.3793 15.1432 25.1967 13.4031 25.6676C12.736 25.8479 12.0329 25.8988 11.3441 25.9923C11.0368 26.0341 10.7855 25.9114 10.6611 25.6133C10.5433 25.3319 10.6335 25.0898 10.8389 24.8744C11.6221 24.0545 11.9603 23.0668 11.9277 21.9439C11.9135 21.4554 11.7849 21.3795 11.3391 21.5381C10.5759 21.8094 9.81108 22.0808 9.03706 22.3179C8.29144 22.5467 8.28559 22.5275 7.56919 22.3914C7.55083 22.4122 7.52494 22.4323 7.51242 22.459C6.77765 24.0028 5.52937 24.9312 3.91121 25.3536C2.88754 25.6208 1.83966 25.797 0.796787 25.9807C0.295808 26.0692 -0.0415185 25.7552 0.00774446 25.2735C0.157203 23.8199 0.441092 22.3972 1.02473 21.0438C1.49983 19.9434 2.29973 19.1603 3.33341 18.5908C3.42359 18.5408 3.51544 18.4923 3.62064 18.4356C3.30669 17.4888 3.78763 16.6655 4.03144 15.8089C4.15001 15.3906 4.3337 14.9899 4.49067 14.5824C4.61842 14.251 4.52658 14.0948 4.1617 14.074C3.05286 14.0114 2.0651 14.3186 1.22429 15.0608C1.17753 15.1026 1.13244 15.146 1.08652 15.1886C0.876109 15.3848 0.633969 15.4449 0.36845 15.3272C0.0995907 15.2078 -0.005615 14.9824 0.000229764 14.696C0.0211039 13.7083 0.224836 12.7556 0.560492 11.8306C1.00887 10.5941 1.6401 9.46442 2.5761 8.52598C4.18842 6.90959 6.20987 6.60151 8.23717 7.6535C8.3382 7.7061 8.43756 7.75953 8.55362 7.82048C8.90764 7.43559 9.25165 7.04819 9.60985 6.67415C11.8217 4.36478 14.5002 2.7893 17.4786 1.69056C19.8131 0.829761 22.2187 0.277049 24.6977 0.0482833C24.7578 0.0424389 24.8154 0.0165566 24.8747 -0.000976562C25.1026 -0.00014165 25.3323 -0.00014165 25.561 -0.00014165ZM11.9745 19.8983C12.0613 19.8608 12.1298 19.8357 12.1932 19.8023C12.7468 19.5134 13.3087 19.2412 13.8498 18.9315C18.1382 16.4794 21.3077 13.052 23.0319 8.36902C23.0937 8.20037 23.1213 8.08515 22.9693 7.93486C21.3278 6.30679 19.6937 4.67203 18.0647 3.03142C17.9303 2.89617 17.8184 2.88031 17.6589 2.95461C16.7071 3.39628 15.7251 3.78285 14.8058 4.28296C10.808 6.4579 8.12946 9.83846 6.17898 13.8636C6.1389 13.9462 6.18315 14.1274 6.25329 14.1984C8.09439 16.0535 9.94384 17.9004 11.7933 19.748C11.8501 19.8031 11.9169 19.8499 11.9745 19.8983ZM5.10771 12.9978C5.96689 11.5993 6.82858 10.1975 7.69026 8.79482C6.49209 8.02837 4.96577 8.12188 3.81435 9.09205C2.52016 10.1816 1.84049 11.6352 1.43971 13.2416C1.43053 13.2783 1.44222 13.3209 1.44556 13.381C2.64958 12.8433 3.86612 12.6229 5.10771 12.9978ZM12.9931 20.891C13.414 22.1259 13.1217 23.344 12.6283 24.5429C12.6717 24.553 12.6925 24.5646 12.7101 24.5605C14.3666 24.1681 15.8487 23.4609 16.9559 22.1217C17.9553 20.9119 17.891 19.4107 17.1955 18.3128C15.7911 19.1753 14.3859 20.0369 12.9931 20.891ZM1.33951 24.6557C2.44334 24.4878 3.45031 24.2541 4.41553 23.8475C5.36989 23.445 5.99361 22.7253 6.43615 21.8161C6.52131 21.6416 6.51046 21.5247 6.3635 21.382C5.7665 20.8025 5.17869 20.2122 4.59588 19.6178C4.47314 19.4926 4.37294 19.4734 4.21514 19.5485C3.33341 19.9676 2.58027 20.5387 2.21623 21.4688C1.92566 22.2102 1.72443 22.9867 1.50233 23.7531C1.42301 24.027 1.3988 24.3167 1.33951 24.6557ZM19.3481 2.38019C20.7717 3.80372 22.2045 5.23643 23.6197 6.6516C24.1324 4.95423 24.5115 3.16501 24.691 1.30316C22.8215 1.49519 21.0355 1.86255 19.3481 2.38019ZM10.6586 20.5045C8.92434 18.7704 7.22435 17.0705 5.49597 15.3422C5.27053 16.0636 5.04426 16.8058 4.80462 17.5439C4.71612 17.816 4.78124 18.0365 4.97162 18.2277C5.90511 19.1644 6.83526 20.1037 7.78295 21.0263C7.90318 21.1432 8.13697 21.2576 8.27808 21.22C9.08633 21.0046 9.88205 20.7424 10.6586 20.5045Z" fill="white"></path><path d="M16.5274 12.5804C14.7957 12.5754 13.4188 11.1945 13.418 9.46285C13.4163 7.74127 14.8057 6.34446 16.5274 6.33694C18.2482 6.32943 19.6777 7.76214 19.6602 9.47872C19.6418 11.2087 18.2508 12.5854 16.5274 12.5804ZM16.5332 11.3306C17.5694 11.3306 18.4027 10.5048 18.4086 9.47037C18.4152 8.43341 17.5527 7.57512 16.5182 7.58681C15.4828 7.59933 14.6612 8.43341 14.6654 9.46953C14.6696 10.5098 15.4937 11.3306 16.5332 11.3306Z" fill="white"></path><path d="M13.7003 12.9501C13.585 13.1647 13.5324 13.3283 13.4272 13.4435C13.1559 13.7424 12.8678 14.0271 12.5731 14.3043C12.2925 14.5681 11.9276 14.5681 11.6805 14.3244C11.4317 14.0806 11.425 13.7124 11.6872 13.4335C11.971 13.1313 12.2666 12.8399 12.5672 12.5543C12.7643 12.3673 13.0198 12.288 13.2494 12.4433C13.4272 12.5644 13.5466 12.7722 13.7003 12.9501Z" fill="white"></path><path d="M10.3552 16.2657C10.0078 16.2699 9.73897 16.0111 9.73062 15.6654C9.7231 15.3098 10.0028 15.0234 10.3543 15.0284C10.6925 15.0334 10.9689 15.3123 10.9689 15.6496C10.9689 15.9894 10.6983 16.2616 10.3552 16.2657Z" fill="white"></path></g><defs><clipPath id="clip0_8577_3980"><rect width="26" height="26" fill="white"></rect></clipPath></defs></svg>