<svg xmlns="http://www.w3.org/2000/svg" width="27" height="34" viewBox="0 0 27 34" fill="none"><path d="M6.68446 34.0002C6.45105 33.8752 6.1906 33.783 5.98873 33.6199C5.09384 32.8973 5.24163 31.5488 6.27351 31.0071C6.45465 30.9122 6.52494 30.8058 6.56279 30.6117C6.88272 28.944 8.40575 27.6788 10.1361 27.6327C10.5263 27.6221 10.9174 27.6309 11.3184 27.6309C11.3283 27.5565 11.3392 27.5157 11.3392 27.474C11.3401 26.4792 11.3401 25.4854 11.3401 24.4419C11.2067 24.4419 11.0886 24.4419 10.9697 24.4419C9.68726 24.4419 8.40575 24.4436 7.12334 24.441C5.8139 24.4383 4.85592 23.7503 4.42695 22.5312C4.3927 22.4337 4.27284 22.3176 4.17371 22.2954C2.48666 21.9186 1.62331 20.8662 1.62241 19.164C1.62241 18.9884 1.62241 18.8129 1.62241 18.6231C0.815832 18.5425 0.256186 18.1772 0.0480081 17.3908C0.0200709 17.2853 0.00565164 17.1727 0.00565164 17.0636C0.00294804 15.8694 -0.00696518 14.6742 0.00835525 13.48C0.0173673 12.808 0.360725 12.3177 0.991566 12.0632C1.43676 11.8832 1.89998 11.7414 2.365 11.6164C3.31576 11.3619 4.28816 12.0428 4.31069 13.0137C4.34133 14.3843 4.33502 15.7568 4.31339 17.1283C4.29988 17.944 3.68075 18.5026 2.74621 18.6125C2.44971 19.961 3.13823 21.0817 4.36747 21.2235C4.3945 21.1455 4.42424 21.063 4.45218 20.9806C4.83068 19.8635 5.82471 19.14 7.0206 19.1338C8.50488 19.1258 9.98916 19.132 11.4734 19.132C11.5951 19.132 11.7168 19.132 11.8592 19.132C11.8592 17.7108 11.8592 16.3136 11.8592 14.8844C11.0183 14.8844 10.1892 14.887 9.36012 14.8835C8.95548 14.8817 8.54544 14.9092 8.14801 14.8542C6.74844 14.6609 5.84544 13.6635 5.67872 12.1944C5.4426 10.118 5.20739 8.04252 4.94784 5.96878C4.56753 2.92155 7.04313 0.0684939 10.1658 0.0241642C12.3918 -0.00686661 14.6195 -0.0095264 16.8455 0.0250508C19.997 0.0729269 22.4564 2.96677 22.0436 6.04325C21.7715 8.07001 21.5471 10.1039 21.3299 12.1368C21.146 13.8612 20.0312 14.8826 18.2712 14.8835C17.2375 14.8844 16.2038 14.8835 15.1458 14.8835C15.1458 16.2958 15.1458 17.6931 15.1458 19.1312C15.2639 19.1312 15.3838 19.1312 15.5027 19.1312C16.9086 19.1312 18.3145 19.1312 19.7194 19.1312C21.2172 19.1312 22.0878 19.7332 22.5934 21.1162C22.6078 21.1561 22.6294 21.1943 22.6465 21.2297C23.8821 21.04 24.4715 20.0869 24.2669 18.6169C23.4738 18.5487 22.9223 18.1736 22.7195 17.3846C22.6871 17.2578 22.6808 17.1221 22.6808 16.99C22.6781 15.7293 22.6763 14.4677 22.6799 13.2069C22.6835 12.0056 23.673 11.3008 24.8347 11.6678C25.2087 11.7857 25.5836 11.9028 25.9521 12.0357C26.5866 12.2645 26.9903 12.8186 26.9948 13.4827C27.0029 14.6769 27.0056 15.872 26.9939 17.0663C26.9858 17.9289 26.3874 18.5043 25.3781 18.616C25.3781 18.8492 25.379 19.0886 25.3781 19.3271C25.3691 20.8423 24.403 21.9895 22.8917 22.2679C22.7051 22.3025 22.6114 22.3699 22.551 22.5561C22.1752 23.7175 21.183 24.433 19.9465 24.4383C18.6533 24.4445 17.3601 24.4401 16.0669 24.4401C15.9452 24.4401 15.8235 24.4401 15.6821 24.4401C15.6821 25.5075 15.6821 26.5511 15.6821 27.5981C16.2408 27.6256 16.7932 27.6132 17.3331 27.6877C18.8957 27.9013 20.1466 29.1098 20.4566 30.64C20.4809 30.7588 20.5747 30.9016 20.6783 30.9601C21.3019 31.3121 21.6507 31.8236 21.5885 32.5347C21.5263 33.2404 21.1181 33.7094 20.4296 33.9355C20.3899 33.9488 20.3557 33.9772 20.3187 33.9993C20.0934 33.9993 19.869 33.9993 19.6437 33.9993C19.0102 33.7679 18.5181 33.3938 18.3974 32.6996C18.3514 32.4372 18.3902 32.1605 18.3902 31.9611C17.0825 31.664 15.783 31.3732 14.4871 31.0727C13.8292 30.9202 13.1758 30.9122 12.5197 31.0745C11.8015 31.2518 11.0868 31.4442 10.3641 31.5984C9.77558 31.7243 9.17808 31.805 8.60762 31.9017C8.60762 32.1871 8.64817 32.4673 8.59951 32.7315C8.47514 33.4115 7.98219 33.7715 7.36306 33.9993C7.13506 34.0002 6.90976 34.0002 6.68446 34.0002ZM13.5038 13.8222C15.0891 13.8222 16.6743 13.8222 18.2604 13.8222C19.4752 13.8222 20.1232 13.2202 20.252 12.0375C20.471 10.0267 20.69 8.01504 20.9586 6.01045C21.3119 3.37726 19.3319 1.08985 16.6337 1.07921C14.5537 1.07123 12.4738 1.07301 10.3929 1.07921C7.765 1.0863 5.76974 3.21413 6.02568 5.78614C6.23926 7.93081 6.51143 10.0702 6.77277 12.2095C6.89894 13.2415 7.58836 13.8205 8.64637 13.8222C10.2658 13.8231 11.8844 13.8222 13.5038 13.8222ZM13.5363 20.1951C11.3671 20.1951 9.19701 20.1897 7.02781 20.1977C6.12211 20.2013 5.41286 20.9017 5.40475 21.7688C5.39664 22.6403 6.09507 23.3735 6.98996 23.3753C11.3292 23.3841 15.6685 23.3868 20.0078 23.3638C20.3395 23.362 20.7126 23.1988 20.9919 23.0065C21.5453 22.627 21.7273 21.9089 21.5164 21.2838C21.2992 20.6401 20.6918 20.1986 19.979 20.1968C17.8305 20.1906 15.683 20.1951 13.5363 20.1951ZM19.3563 30.8005C19.1607 29.6222 18.0504 28.7019 16.7887 28.6948C14.5961 28.6815 12.4035 28.6833 10.2109 28.6948C9.08796 28.7002 8.08763 29.4245 7.71813 30.4609C7.68028 30.5673 7.65956 30.6799 7.62351 30.8147C7.74878 30.8147 7.82718 30.812 7.90558 30.8147C9.20782 30.8635 10.4389 30.4955 11.6771 30.1808C12.5432 29.96 13.4119 29.7862 14.3068 29.9591C14.9115 30.0762 15.5117 30.2242 16.1083 30.3776C17.1654 30.6498 18.227 30.8776 19.3563 30.8005ZM3.24277 15.098C3.24277 14.457 3.24908 13.8151 3.24096 13.1741C3.23556 12.7477 2.95438 12.5438 2.54704 12.6661C2.18205 12.776 1.82247 12.9019 1.46109 13.0207C1.20605 13.105 1.08349 13.2805 1.08349 13.5456C1.08439 14.6955 1.07988 15.8454 1.08619 16.9945C1.08799 17.3562 1.28085 17.53 1.66116 17.5371C1.97568 17.5433 2.2902 17.5406 2.60562 17.5379C3.06523 17.5344 3.24006 17.3668 3.24277 16.9209C3.24547 16.3136 3.24277 15.7062 3.24277 15.098ZM23.7577 15.0502C23.7577 15.7018 23.7523 16.3526 23.7595 17.0042C23.7631 17.3562 23.9434 17.53 24.3011 17.5379C24.649 17.5459 24.9969 17.5442 25.3447 17.5388C25.7395 17.5326 25.9134 17.3606 25.9152 16.9652C25.9188 15.8392 25.9134 14.7133 25.9188 13.5873C25.9206 13.2779 25.7836 13.0917 25.4844 13.0021C25.1627 12.9055 24.8473 12.7911 24.5273 12.69C24.0353 12.5349 23.7622 12.7246 23.7586 13.2291C23.755 13.8355 23.7577 14.4428 23.7577 15.0502ZM12.4359 27.6052C13.1632 27.6052 13.8634 27.6052 14.5537 27.6052C14.5537 26.5386 14.5537 25.4969 14.5537 24.4605C13.8346 24.4605 13.1425 24.4605 12.4359 24.4605C12.4359 25.512 12.4359 26.5466 12.4359 27.6052ZM14.0166 19.117C14.0166 17.694 14.0166 16.2976 14.0166 14.911C13.6516 14.911 13.311 14.911 12.9775 14.911C12.9775 16.326 12.9775 17.7144 12.9775 19.117C13.3281 19.117 13.6607 19.117 14.0166 19.117ZM7.55952 32.4114C7.56223 32.1242 7.3189 31.8813 7.02601 31.8795C6.73312 31.8768 6.48709 32.1153 6.48529 32.4035C6.48259 32.6907 6.72591 32.9337 7.0179 32.9363C7.30899 32.9381 7.55682 32.6987 7.55952 32.4114ZM20.5161 32.4026C20.5134 32.1144 20.2665 31.8759 19.9736 31.8795C19.6807 31.8822 19.4392 32.1251 19.4419 32.4123C19.4446 32.7005 19.6915 32.939 19.9835 32.9363C20.2755 32.9328 20.5188 32.689 20.5161 32.4026Z" fill="black"></path></svg>