<svg xmlns="http://www.w3.org/2000/svg" width="51" height="29" viewBox="0 0 51 29" fill="none"><path d="M25.5 27.6425C39.031 27.6425 50 25.0494 50 21.8505C50 18.6517 39.031 16.0586 25.5 16.0586C11.969 16.0586 1 18.6517 1 21.8505C1 25.0494 11.969 27.6425 25.5 27.6425Z" fill="#28AAFF" stroke="white" stroke-width="2" stroke-miterlimit="10"></path><path d="M25.5 20.1132C39.031 20.1132 50 17.5201 50 14.3213C50 11.1225 39.031 8.5293 25.5 8.5293C11.969 8.5293 1 11.1225 1 14.3213C1 17.5201 11.969 20.1132 25.5 20.1132Z" fill="#28AAFF" stroke="white" stroke-width="2" stroke-miterlimit="10"></path><path d="M25.5 12.5839C39.031 12.5839 50 9.99078 50 6.79196C50 3.59315 39.031 1 25.5 1C11.969 1 1 3.59315 1 6.79196C1 9.99078 11.969 12.5839 25.5 12.5839Z" fill="#28AAFF" stroke="white" stroke-width="2" stroke-miterlimit="10"></path></svg>