<svg xmlns="http://www.w3.org/2000/svg" width="24" height="31" viewBox="0 0 24 31" fill="none"><g clip-path="url(#clip0_8577_3953)"><path d="M2.12737 30.9998C1.74419 30.8299 1.32511 30.7102 0.985345 30.4796C0.34254 30.0445 0.0369989 29.399 0.00694563 28.6403C-0.00641135 28.3078 0.00360639 27.9746 0.00360639 27.6413C0.00360639 19.2784 0.00277157 10.9147 0.00360639 2.55174C0.00360639 1.35057 0.681473 0.41875 1.79595 0.107335C2.04222 0.0385807 2.30769 0.00379923 2.56397 0.00379923C7.33242 -0.00186287 12.1009 -0.00186287 16.8693 0.00056374C17.4253 0.00056374 17.9095 0.198737 18.3018 0.577289C19.999 2.21444 21.6912 3.85565 23.3825 5.49846C23.7982 5.90209 23.9994 6.39631 23.9994 6.9698C23.9978 14.0919 23.9986 21.214 23.9986 28.3369C23.9986 29.7638 23.3458 30.5897 21.9233 30.9642C21.9049 30.969 21.8907 30.9876 21.874 30.9989C15.2915 30.9998 8.70986 30.9998 2.12737 30.9998ZM16.4995 0.968783C16.3567 0.968783 16.244 0.968783 16.1322 0.968783C11.6551 0.968783 7.17798 0.968783 2.70088 0.968783C1.59476 0.968783 1.00204 1.54065 1.00204 2.60998C1.00204 11.2051 1.00204 19.8001 1.00204 28.3952C1.00204 29.4467 1.59977 30.0307 2.67584 30.0307C8.89185 30.0307 15.107 30.0307 21.323 30.0307C22.4016 30.0307 22.9977 29.4483 22.9977 28.3952C22.9977 21.4648 22.9977 14.5344 22.9977 7.60315C22.9977 7.49638 22.9977 7.3896 22.9977 7.26423C21.6979 7.26423 20.4398 7.26504 19.1817 7.26423C17.5539 7.26342 16.5003 6.24748 16.4995 4.67827C16.4986 3.45849 16.4995 2.23871 16.4995 0.968783ZM22.6512 6.2952C20.9365 4.63378 19.2101 2.96265 17.5038 1.30932C17.5038 2.49431 17.4821 3.73189 17.5121 4.96865C17.5296 5.6845 18.18 6.27902 18.9254 6.29035C20.1827 6.30814 21.4399 6.2952 22.6512 6.2952Z" fill="black"></path></g><defs><clipPath id="clip0_8577_3953"><rect width="24" height="31" fill="white"></rect></clipPath></defs></svg>