<svg xmlns="http://www.w3.org/2000/svg" width="32" height="26" viewBox="0 0 32 26" fill="none"><g clip-path="url(#clip0_8546_3814)"><path d="M32.0014 22.7107C31.8945 22.9513 31.7597 23.158 31.4739 23.2288C31.0279 23.339 30.6384 23.0406 30.6204 22.545C30.5984 21.961 30.6188 21.3753 30.5755 20.7929C30.4056 18.4777 29.2892 16.6757 27.4214 15.3105C25.9742 14.2535 24.3261 13.7475 22.5326 13.6767C22.5016 13.6751 22.4705 13.6735 22.4387 13.6719C21.8776 13.6437 21.5754 13.4056 21.5705 12.9889C21.5664 12.5738 21.8727 12.3268 22.4281 12.2962C24.7712 12.1667 26.5295 10.2763 26.4315 7.99241C26.345 5.98047 24.723 4.29674 22.6845 4.10528C22.5391 4.09161 22.3938 4.08356 22.2492 4.06747C21.8343 4.02082 21.5509 3.72478 21.5713 3.36358C21.5926 2.99353 21.8931 2.6999 22.3047 2.71438C22.7082 2.72886 23.1198 2.76023 23.5102 2.85516C26.5728 3.59526 28.3761 6.46395 27.6615 9.48146C27.3707 10.7083 26.6913 11.713 25.6794 12.4925C25.5765 12.5722 25.4727 12.651 25.3674 12.7315C25.9611 12.9945 26.5442 13.2101 27.0874 13.5005C29.3561 14.7144 30.9283 16.5108 31.665 18.9692C31.8201 19.4857 31.8904 20.0271 32.0006 20.5572C32.0014 21.274 32.0014 21.9924 32.0014 22.7107Z" fill="black"></path><path d="M9.05793 12.737C4.79312 10.1482 4.69348 4.99729 7.49068 2.07873C10.1376 -0.682967 14.8369 -0.697447 17.5345 2.06264C20.3194 4.91283 20.3006 10.1337 15.9868 12.7386C16.1877 12.8045 16.3584 12.8608 16.5291 12.9155C19.8319 13.9646 22.3563 15.9379 23.9415 19.0077C24.71 20.4959 25.0334 22.0952 25.0481 23.758C25.0522 24.2503 25.0547 24.7427 25.0457 25.235C25.04 25.5391 24.9338 25.8045 24.6267 25.9316C24.3678 26.0386 24.0787 26.0322 23.9072 25.8158C23.7659 25.638 23.6753 25.3814 23.6606 25.1537C23.6222 24.5504 23.6557 23.943 23.6287 23.3389C23.4833 20.1186 21.961 17.6361 19.3451 15.7875C16.9538 14.0973 14.2448 13.4521 11.3373 13.7377C8.08198 14.0579 5.36318 15.4391 3.34674 18.0182C2.19029 19.4976 1.52386 21.1829 1.43321 23.0638C1.39727 23.8006 1.39891 24.5399 1.38584 25.2776C1.38012 25.5841 1.25435 25.856 0.960339 25.9252C0.745547 25.9759 0.462151 25.9244 0.26696 25.8166C0.128937 25.7402 0.0194993 25.4956 0.0154158 25.3227C-0.0278694 23.6389 -0.0164356 21.9633 0.549539 20.3366C1.25027 18.3231 2.43857 16.6514 4.08177 15.2879C5.45301 14.1504 7.00638 13.3419 8.72962 12.8512C8.82599 12.8238 8.9191 12.786 9.05793 12.737ZM6.95411 6.81375C6.94758 9.81679 9.4622 12.2977 12.5175 12.3009C15.5744 12.305 18.076 9.84011 18.08 6.82019C18.0841 3.79785 15.5948 1.34346 12.5248 1.34185C9.45975 1.34024 6.96146 3.79383 6.95411 6.81375Z" fill="black"></path></g><defs><clipPath id="clip0_8546_3814"><rect width="32" height="26" fill="white"></rect></clipPath></defs></svg>