<svg xmlns="http://www.w3.org/2000/svg" width="44" height="47" viewBox="0 0 44 47" fill="none"><path d="M27.4426 33.624C27.4426 41.0128 21.3194 47.0023 13.7701 47.0023C6.22086 47.0023 0.0976562 41.0128 0.0976562 33.624C0.0976562 26.2351 6.22086 20.2456 13.7701 20.2456C21.3194 20.2456 27.4426 26.2351 27.4426 33.624Z" fill="#28AAFF"></path><path d="M0.268014 11.9006L8.74424 15.5906C8.91358 15.6619 9.10967 15.6084 9.1988 15.4658C9.25228 15.3766 9.2701 15.2608 9.23445 15.1449L6.42687 6.33C6.36448 6.125 6.15948 5.99131 5.9634 6.01804C5.82079 6.03587 5.71383 6.13391 5.67818 6.27652L4.78688 9.03954L2.61212 6.63304C2.37147 6.36565 2.00604 6.23196 1.64952 6.27652C1.41779 6.30326 1.21279 6.4013 1.04344 6.55282C0.588881 6.96282 0.553229 7.66694 0.963225 8.13042L3.1469 10.5547L0.303666 11.143C0.143232 11.1608 0.027364 11.2767 0.00953812 11.4282C-0.0350267 11.6243 0.0808418 11.8204 0.268014 11.9006Z" fill="#EB87D2"></path><path d="M43.6271 24.1809C43.6271 25.9991 42.1475 27.4787 40.3293 27.4787H19.4462C17.628 27.4787 16.1484 25.9991 16.1484 24.1809V3.2978C16.1484 1.47956 17.628 0 19.4462 0H40.3293C42.1475 0 43.6271 1.47956 43.6271 3.2978V24.1809Z" fill="#EB87D2"></path><path d="M29.8928 16.0127L36.7469 27.6352L43.6099 39.2488H29.8928H16.1758L23.0388 27.6352L29.8928 16.0127Z" fill="#FADC32"></path></svg>