<svg xmlns="http://www.w3.org/2000/svg" width="51" height="48" viewBox="0 0 51 48" fill="none"><path d="M41.1274 14.4006C39.8173 15.7316 39.5553 17.7334 40.8025 19.1064C41.1588 19.4942 41.5885 19.7772 42.0497 19.9553C42.3746 20.0811 42.4689 20.4899 42.2698 20.7519L38.7587 23.9485C38.7273 23.9799 38.6854 24.0009 38.6539 24.0219C38.6015 24.0533 38.5386 24.0743 38.4862 24.0848C38.3709 24.0743 38.2452 24.0219 38.1613 23.9171L37.8364 23.5712L34.9018 20.427C34.8494 20.3746 34.7865 20.3326 34.7236 20.3012L34.6712 20.2488C34.3778 19.9344 34.5664 19.4418 34.9961 19.3684C35.5831 19.2636 36.149 19.0016 36.6207 18.5719C38.4653 16.8845 37.9308 13.5621 34.818 12.8389C34.6608 12.797 34.4931 12.797 34.3359 12.818C32.6275 13.059 31.6004 14.1071 31.2755 15.3124C31.1707 15.7211 30.6676 15.8574 30.3846 15.5534L28.3199 13.2896L27.0308 11.8747C26.9574 11.7909 26.9155 11.6965 26.8945 11.5917C26.905 11.4869 26.9469 11.3926 27.0203 11.3087C27.0308 11.2878 27.0413 11.2668 27.0622 11.2563L30.5523 8.0073C30.6152 7.9549 30.6571 7.88153 30.6886 7.80816C30.8667 7.53567 30.7619 7.14789 30.4475 7.0326C29.9863 6.85443 29.5566 6.57142 29.2003 6.18363C28.0055 4.87354 28.0789 2.85076 29.3575 1.63499C30.6781 0.46115 32.7009 0.545009 33.9061 1.84462C34.2625 2.23241 34.514 2.68308 34.6503 3.15471C34.7446 3.47962 35.1219 3.60539 35.4049 3.45866C35.4783 3.4377 35.5516 3.40624 35.6145 3.34336L39.136 0.136255C39.2408 0.0419281 39.3561 0 39.4819 0C39.5867 0.0209615 39.6706 0.0733588 39.7544 0.157205L43.1502 3.80451C43.4436 4.10846 43.255 4.60107 42.8357 4.67443C41.6095 4.90501 40.4776 5.83776 40.1003 7.52516C40.0688 7.68237 40.0583 7.85009 40.0793 8.0073C40.5509 11.1725 43.8209 11.969 45.6551 10.2607C46.1267 9.82046 46.4306 9.28593 46.5774 8.70949C46.6822 8.29026 47.1957 8.15402 47.4892 8.45796L47.5416 8.51036C47.5626 8.57324 47.594 8.63615 47.6464 8.69903L50.864 12.231C50.9478 12.3254 51.0002 12.4511 51.0002 12.5664C50.9793 12.6608 50.9269 12.7551 50.843 12.8284L47.3739 16.067C47.0909 16.2452 46.6926 16.1194 46.5983 15.784C46.4621 15.3124 46.2105 14.8617 45.8542 14.4739C44.586 13.1009 42.4375 13.0695 41.1274 14.4006Z" fill="#EB87D2"></path><path d="M5.39778 29.9605L5.36633 25.2127C5.41874 24.9612 5.63883 24.783 5.87989 24.783C5.95326 24.783 6.02662 24.804 6.09999 24.8355C6.54018 25.0555 7.03277 25.1813 7.54633 25.1813H7.56729C10.0722 25.1708 11.8958 22.341 10.0722 19.7208C9.97786 19.5846 9.86257 19.4693 9.72632 19.375C8.99267 18.8719 8.23806 18.6518 7.54633 18.6518C7.01181 18.6518 6.50873 18.7776 6.06854 19.0082C5.99518 19.0501 5.91133 19.0606 5.83797 19.0606C5.59691 19.0606 5.37681 18.8824 5.32441 18.6413L5.29297 13.642C5.29297 13.3486 5.52355 13.1075 5.82749 13.1075L10.6067 13.0761C10.9945 13.0761 11.267 12.6568 11.0888 12.311C10.8478 11.8603 10.7115 11.3572 10.7115 10.8122C10.701 9.00953 12.1683 7.53174 13.971 7.53174C14.6628 7.53174 15.4069 7.75183 16.1405 8.24442C16.2768 8.33875 16.3921 8.45404 16.4864 8.57981C17.3982 9.8899 17.4087 11.2315 16.8847 12.2691C16.7065 12.6254 16.9685 13.0341 17.3668 13.0341L22.1565 13.0027C22.4499 13.0027 22.691 13.2438 22.691 13.5372L22.7224 18.3059C22.7224 18.6099 22.974 18.8405 23.257 18.8405C23.3408 18.8405 23.4142 18.8195 23.498 18.788C23.9382 18.5575 24.4413 18.4317 24.9758 18.4317C25.6675 18.4317 26.4221 18.6518 27.1558 19.1549C27.292 19.2492 27.4073 19.3645 27.5017 19.5008C29.3253 22.1209 27.4912 24.9403 24.9968 24.9612H24.9758C24.4518 24.9612 23.9592 24.8355 23.519 24.6154C23.4456 24.5734 23.3722 24.5629 23.2989 24.5629C23.0264 24.5629 22.7644 24.7935 22.7748 25.108L22.8063 29.8767C22.8063 29.992 22.7644 30.0968 22.7015 30.1806L5.39778 29.9605Z" fill="#28AAFF"></path><path d="M22.3906 29.906C22.464 29.8641 22.5059 29.7802 22.5793 29.7383C22.5269 29.8012 22.464 29.8641 22.3906 29.906Z" fill="#C789C0"></path><path d="M22.1466 46.5299C22.1466 46.6767 22.178 46.8234 22.22 46.9597L6.11105 47.054C5.81759 47.054 5.57654 46.8234 5.57654 46.5195L5.54509 41.7403C5.54509 41.3525 5.12586 41.08 4.78 41.2581C4.32933 41.4992 3.82625 41.6355 3.28125 41.6355C0.776357 41.6459 -1.07873 38.8476 0.713472 36.2064C0.807799 36.0702 0.923087 35.9549 1.04886 35.8606C2.35895 34.9487 3.70048 34.9382 4.73808 35.4623C5.09442 35.6405 5.50317 35.3784 5.50317 34.9802L5.47173 30.3896C5.62894 30.4525 5.80711 30.4944 5.99577 30.4944L10.9636 30.463C11.4772 30.463 11.9383 30.18 12.1794 29.7398C12.4205 29.2891 12.3995 28.7337 12.127 28.2935C11.8859 27.9162 11.7497 27.476 11.7497 27.0253C11.7497 26.386 11.9907 25.7781 12.4414 25.3169C12.8921 24.8663 13.5 24.6147 14.1393 24.6147C14.7053 24.6147 15.2712 24.8034 15.8267 25.1807C15.8686 25.2121 15.921 25.2541 15.9525 25.296C16.6547 26.3021 16.728 27.3921 16.1726 28.2725C15.9001 28.7127 15.8791 29.2577 16.1202 29.7084C16.3612 30.1486 16.8224 30.4211 17.3359 30.4211L22.0523 30.3896L22.1466 46.5299Z" fill="#FADC32"></path><path d="M21.8018 41.2086C21.7285 41.2086 21.6446 41.2296 21.5713 41.2715C21.1206 41.5126 20.6175 41.6488 20.0725 41.6488H20.0516C17.5571 41.6488 15.7125 38.8505 17.5047 36.2198C17.5991 36.0835 17.7144 35.9683 17.8401 35.8739C18.5843 35.3499 19.3493 35.1298 20.0516 35.1298C20.5861 35.1298 21.0787 35.2556 21.5293 35.4862C21.6027 35.5281 21.6866 35.5386 21.7704 35.5386C22.0534 35.5386 22.3049 35.308 22.3049 35.004L22.2735 30.2667C22.2735 30.2667 22.284 30.2667 22.284 30.2563C22.284 30.2458 22.284 30.2353 22.284 30.2248C22.284 30.099 22.3259 29.9942 22.3992 29.9104C22.4726 29.8685 22.5355 29.8161 22.5879 29.7427C22.6613 29.7008 22.7451 29.6798 22.8394 29.6798C22.8604 29.6798 22.8709 29.6903 22.8918 29.6903C22.8918 29.6903 22.8918 29.6798 22.9023 29.6798L27.5872 29.6484C27.975 29.6484 28.237 29.2291 28.0588 28.8833C27.5348 27.8666 27.5348 26.5356 28.4257 25.2255C28.52 25.0893 28.6353 24.974 28.7715 24.8797C29.5157 24.3661 30.2703 24.146 30.9725 24.146C32.7647 24.146 34.2215 25.5923 34.232 27.3845C34.232 27.9086 34.1062 28.4116 33.8861 28.8518C33.708 29.1977 33.9805 29.6065 34.3682 29.6065L39.137 29.575C39.4304 29.575 39.6715 29.8161 39.6715 30.1095L39.7029 35.0879C39.7029 35.4023 39.4514 35.6119 39.1789 35.6119C39.0846 35.6119 38.9798 35.5805 38.8854 35.5281C38.3824 35.2136 37.785 35.025 37.1561 35.025C36.4539 35.025 35.6993 35.2451 34.9552 35.7691C34.8189 35.8635 34.7036 35.9788 34.6093 36.115C32.8171 38.7562 34.6617 41.5545 37.1561 41.5545H37.1771C37.8164 41.5545 38.4138 41.3658 38.9169 41.0409C39.0112 40.9781 39.116 40.9466 39.2208 40.9466C39.4933 40.9466 39.7553 41.1562 39.7553 41.4707L39.7868 46.4385C39.7868 46.732 39.5457 46.973 39.2523 46.973L34.5045 47.0045C34.1796 46.9416 33.97 46.5748 34.1272 46.2604C34.3473 45.8202 34.4731 45.3171 34.4731 44.7931C34.4626 43.0009 33.0058 41.5545 31.2135 41.5545C30.5113 41.5545 29.7567 41.7746 29.0126 42.2882C28.8763 42.3825 28.7611 42.4978 28.6667 42.634C27.7759 43.9441 27.7759 45.2752 28.2999 46.2918C28.4571 46.6062 28.2685 46.9731 27.9331 47.0464L22.9338 47.0779C22.6403 47.0779 22.3992 46.8368 22.3992 46.5433L22.3678 41.7641C22.3364 41.4392 22.0743 41.2086 21.8018 41.2086Z" fill="#28AAFF"></path></svg>