<svg xmlns="http://www.w3.org/2000/svg" width="22" height="17" viewBox="0 0 22 17" fill="none"><mask id="path-1-inside-1_8088_17455" fill="white"><path fill-rule="evenodd" clip-rule="evenodd" d="M4.34908 16.3259L15.0561 8.27702L4.48293 0.0375088L4.44692 4.41902L0.223615 4.3812L0.159861 12.1396L4.38317 12.1774L4.34908 16.3259Z"></path></mask><path fill-rule="evenodd" clip-rule="evenodd" d="M4.34908 16.3259L15.0561 8.27702L4.48293 0.0375088L4.44692 4.41902L0.223615 4.3812L0.159861 12.1396L4.38317 12.1774L4.34908 16.3259Z" fill="white"></path><path d="M15.0561 8.27702L15.5071 8.87664C15.6936 8.73639 15.8042 8.51721 15.8061 8.28373C15.808 8.05026 15.7011 7.82912 15.5169 7.68555L15.0561 8.27702ZM4.34908 16.3259L3.59911 16.3192C3.59676 16.6046 3.7566 16.8667 4.01145 16.9954C4.26629 17.124 4.57197 17.097 4.80002 16.9255L4.34908 16.3259ZM4.48293 0.0375088L4.94366 -0.553952C4.71846 -0.729445 4.41327 -0.761986 4.15635 -0.637898C3.89942 -0.51381 3.7353 -0.254602 3.73296 0.0307914L4.48293 0.0375088ZM4.44692 4.41902L4.44076 5.169C4.63966 5.17078 4.83107 5.09347 4.97287 4.95409C5.11468 4.8147 5.19526 4.62465 5.19689 4.42574L4.44692 4.41902ZM0.223615 4.3812L0.229778 3.63122C0.0308733 3.62944 -0.160534 3.70675 -0.302336 3.84613C-0.444138 3.98552 -0.52472 4.17557 -0.526355 4.37448L0.223615 4.3812ZM0.159861 12.1396L-0.590109 12.1329C-0.593513 12.5471 -0.260499 12.8859 0.153698 12.8896L0.159861 12.1396ZM4.38317 12.1774L5.13314 12.1841C5.13654 11.7699 4.80353 11.4312 4.38933 11.4274L4.38317 12.1774ZM14.6052 7.67739L3.89814 15.7263L4.80002 16.9255L15.5071 8.87664L14.6052 7.67739ZM4.0222 0.628969L14.5954 8.86848L15.5169 7.68555L4.94366 -0.553952L4.0222 0.628969ZM5.19689 4.42574L5.2329 0.0442263L3.73296 0.0307914L3.69695 4.41231L5.19689 4.42574ZM0.217452 5.13117L4.44076 5.169L4.45309 3.66905L0.229778 3.63122L0.217452 5.13117ZM0.909831 12.1463L0.973585 4.38791L-0.526355 4.37448L-0.590109 12.1329L0.909831 12.1463ZM4.38933 11.4274L0.166024 11.3896L0.153698 12.8896L4.37701 12.9274L4.38933 11.4274ZM5.09905 16.3326L5.13314 12.1841L3.6332 12.1707L3.59911 16.3192L5.09905 16.3326Z" fill="black" mask="url(#path-1-inside-1_8088_17455)"></path><line x1="0.375" y1="-0.375" x2="3.20618" y2="-0.375" transform="matrix(-0.685755 -0.72834 0.697623 -0.715949 18.3438 11.9844)" stroke="black" stroke-width="0.75" stroke-linecap="round"></line><line x1="0.375" y1="-0.375" x2="3.20618" y2="-0.375" transform="matrix(-0.697623 0.715949 -0.685755 -0.72834 18.4102 4.22656)" stroke="black" stroke-width="0.75" stroke-linecap="round"></line><line x1="0.375" y1="-0.375" x2="4.80451" y2="-0.375" transform="matrix(-0.99996 -0.00895665 0.00821716 -0.999966 21.3008 8.25)" stroke="black" stroke-width="0.75" stroke-linecap="round"></line></svg>