<svg xmlns="http://www.w3.org/2000/svg" width="36" height="26" viewBox="0 0 36 26" fill="none"><g clip-path="url(#clip0_8577_3972)"><path d="M0 23.2112C0.205714 22.9428 0.478121 22.8677 0.820039 22.8677C12.2686 22.875 23.7173 22.8732 35.1659 22.8741C35.8732 22.8741 36.0911 23.1287 35.9681 23.8102C35.7473 25.0348 34.8305 25.8619 33.5568 25.9828C33.4168 25.9956 33.2759 25.9993 33.136 25.9993C23.0466 26.0002 12.9572 26.0002 2.86873 25.9993C1.5499 25.9993 0.566419 25.3847 0.162505 24.3112C0.102387 24.1527 0.0535421 23.9897 0 23.8285C0 23.6233 0 23.4172 0 23.2112ZM34.7526 23.9934C23.5595 23.9934 12.4255 23.9934 1.29065 23.9934C1.27092 24.019 1.25025 24.0447 1.23053 24.0703C1.42873 24.2663 1.59311 24.5356 1.83358 24.6419C2.17268 24.7921 2.5672 24.8919 2.9373 24.8928C12.9778 24.9057 23.0193 24.9029 33.0599 24.9011C33.2581 24.9011 33.46 24.8937 33.6545 24.858C34.1598 24.7664 34.5102 24.4779 34.7526 23.9934Z" fill="white"></path><path d="M10.415 5.04872C8.37754 5.04872 6.36361 5.03132 4.34874 5.05696C3.46107 5.06796 2.87398 5.75583 2.8721 6.69009C2.86177 11.5684 2.85332 16.4477 2.84298 21.326C2.84298 21.4744 2.8458 21.6246 2.8195 21.7693C2.76972 22.0404 2.58749 22.1888 2.30756 22.1998C2.01355 22.2117 1.81253 22.0716 1.74396 21.7885C1.71484 21.6685 1.71484 21.5394 1.71484 21.4148C1.7233 16.5136 1.73175 11.6115 1.74396 6.71025C1.74772 5.04597 2.88244 3.9505 4.59484 3.94867C6.62193 3.94684 8.64901 3.94318 10.6761 3.95417C10.9194 3.95508 11.0471 3.87448 11.1721 3.67938C13.6782 -0.243606 19.2024 -1.2026 22.9222 1.64599C23.0856 1.77056 23.2247 2.00687 23.2435 2.20288C23.2566 2.34394 23.0781 2.59582 22.9372 2.63429C22.7465 2.68742 22.4582 2.65078 22.3013 2.53629C21.4334 1.90337 20.4856 1.46005 19.4269 1.23564C15.4338 0.38748 11.4501 3.23607 11.0922 7.19936C10.7663 10.8109 13.202 13.9132 16.8691 14.5553C20.5231 15.1956 24.2213 12.6511 24.8262 9.0917C24.9615 8.29483 24.9812 7.50345 24.8375 6.7075C24.7699 6.33288 24.9408 6.05626 25.2602 5.99398C25.6115 5.9262 25.8717 6.12038 25.9459 6.50691C26.7894 10.897 23.5046 15.2001 18.9441 15.6801C14.517 16.1454 10.6113 13.2025 9.99696 8.93141C9.82694 7.74801 9.94154 6.58476 10.3201 5.44807C10.353 5.35098 10.384 5.25298 10.4131 5.15406C10.4206 5.13116 10.415 5.10734 10.415 5.04872Z" fill="white"></path><path d="M34.2834 14.0111C34.2834 16.4439 34.2834 18.8766 34.2834 21.3094C34.2834 21.4239 34.289 21.5384 34.2777 21.652C34.2458 21.9927 34.0363 22.196 33.7226 22.1988C33.3948 22.2015 33.1825 21.9899 33.1581 21.6281C33.1496 21.5027 33.1543 21.3772 33.1543 21.2517C33.1543 16.4549 33.1552 11.6572 33.1515 6.86037C33.1515 6.62222 33.1458 6.37583 33.0848 6.14685C32.9073 5.48004 32.2929 5.04954 31.5292 5.04588C30.124 5.03947 28.7178 5.04405 27.3126 5.04405C27.2309 5.04405 27.1482 5.0468 27.0665 5.04313C26.7095 5.02756 26.4756 4.81048 26.4766 4.49631C26.4775 4.19497 26.6992 3.95407 27.0345 3.95316C28.6276 3.94675 30.2217 3.91103 31.8129 3.96965C33.1233 4.01819 34.1462 5.06054 34.2561 6.33736C34.29 6.73488 34.2806 7.13607 34.2806 7.53542C34.2843 9.6943 34.2834 11.8523 34.2834 14.0111Z" fill="white"></path><path d="M18.1848 10.8897C17.6278 10.3456 17.083 9.81256 16.5381 9.28039C15.8675 8.62549 15.194 7.97425 14.5261 7.31661C14.2255 7.02076 14.2039 6.71758 14.4491 6.47394C14.6858 6.23854 15.0268 6.25594 15.318 6.53714C16.1831 7.3734 17.0416 8.21606 17.9039 9.05507C17.9932 9.14208 18.0871 9.22635 18.1961 9.32802C18.3003 9.23185 18.3952 9.14941 18.4844 9.0624C20.489 7.10777 22.4935 5.15315 24.4981 3.19944C24.5892 3.11059 24.6775 3.01442 24.7846 2.94938C25.0213 2.80375 25.2589 2.83123 25.4599 3.01808C25.661 3.20493 25.6957 3.43483 25.5642 3.6739C25.5154 3.76274 25.4374 3.83785 25.3632 3.91021C23.0365 6.18084 20.7088 8.45055 18.3811 10.7193C18.3266 10.7743 18.2637 10.8228 18.1848 10.8897Z" fill="white"></path><path d="M18.5681 19.5827C18.5597 19.8959 18.2957 20.1377 17.9773 20.1249C17.6579 20.1121 17.4184 19.852 17.4343 19.5369C17.4503 19.2337 17.6917 19.0139 18.0073 19.0166C18.3342 19.0194 18.5766 19.2639 18.5681 19.5827Z" fill="white"></path><path d="M20.1582 20.125C19.8388 20.126 19.5852 19.8741 19.5899 19.5599C19.5946 19.2558 19.8294 19.0232 20.1404 19.0158C20.4644 19.0076 20.7265 19.2485 20.7321 19.559C20.7378 19.8622 20.4719 20.1241 20.1582 20.125Z" fill="white"></path><path d="M15.8604 19.0158C16.1826 19.0241 16.4231 19.2787 16.4071 19.5965C16.393 19.8951 16.1422 20.1269 15.8369 20.125C15.5232 20.1232 15.2574 19.8594 15.2658 19.5572C15.2733 19.2457 15.5345 19.0076 15.8604 19.0158Z" fill="white"></path></g><defs><clipPath id="clip0_8577_3972"><rect width="36" height="26" fill="white"></rect></clipPath></defs></svg>