<svg xmlns="http://www.w3.org/2000/svg" width="25" height="25" viewBox="0 0 25 25" fill="none"><g clip-path="url(#clip0_8577_3961)"><path d="M12.4841 5.30713C13.3659 5.34505 14.0243 5.73023 14.4307 6.5006C14.6934 6.99718 14.9299 7.50799 15.1616 8.0188C15.2935 8.31035 15.492 8.45494 15.8141 8.48931C16.3049 8.54265 16.7945 8.6185 17.2806 8.70501C18.1601 8.86146 18.7614 9.3699 19.0431 10.2102C19.3271 11.0576 19.156 11.8374 18.5499 12.4999C18.1874 12.8958 17.7988 13.2691 17.4149 13.6448C17.2057 13.8487 17.119 14.0738 17.176 14.3689C17.2735 14.8786 17.3472 15.3917 17.4351 15.9026C17.6835 17.3497 16.6282 18.6557 15.2222 18.5941C14.88 18.5787 14.527 18.453 14.2097 18.3108C13.7521 18.107 13.3172 17.8498 12.8822 17.5985C12.6231 17.4492 12.3926 17.4385 12.1287 17.5938C11.7259 17.832 11.304 18.0347 10.8963 18.2646C10.0715 18.7316 9.25271 18.747 8.47428 18.1923C7.67328 17.6211 7.41776 16.8128 7.57345 15.8611C7.65545 15.3574 7.7327 14.8537 7.8254 14.3524C7.87769 14.0691 7.79331 13.8475 7.59246 13.6495C7.1979 13.2608 6.79264 12.878 6.42304 12.4667C5.83714 11.8149 5.68145 11.0457 5.95479 10.2185C6.22219 9.40901 6.7867 8.89109 7.63525 8.72516C8.15341 8.62442 8.6787 8.54857 9.2028 8.48694C9.51298 8.4502 9.7067 8.30561 9.83386 8.02591C10.0632 7.52221 10.2985 7.02089 10.5517 6.52904C10.9557 5.74683 11.6153 5.35217 12.4841 5.30713ZM9.20755 16.2451C9.16477 16.7263 9.58904 17.1174 10.0264 16.8531C10.478 16.5805 10.9546 16.3482 11.418 16.0957C12.1477 15.6975 12.8751 15.7058 13.6012 16.1017C14.0421 16.3423 14.4878 16.5746 14.9263 16.8199C15.1355 16.936 15.3375 17.0119 15.555 16.8507C15.7654 16.6954 15.8355 16.4845 15.7951 16.2332C15.7297 15.8232 15.6845 15.4083 15.5895 15.0054C15.3351 13.921 15.5823 13.0084 16.4392 12.2665C16.7529 11.995 17.0334 11.6845 17.3222 11.3847C17.4981 11.2022 17.5492 10.9817 17.466 10.7364C17.3852 10.4994 17.2212 10.3749 16.9704 10.3417C16.5319 10.2837 16.0981 10.196 15.6584 10.1486C14.7136 10.0466 14.0433 9.58323 13.6523 8.71331C13.4503 8.26413 13.2292 7.82325 13.0177 7.37762C12.9119 7.15481 12.7729 6.97585 12.4948 6.97941C12.2298 6.98296 12.0966 7.156 11.9944 7.36933C11.7568 7.86828 11.5238 8.3708 11.2754 8.86501C10.926 9.56189 10.3675 9.985 9.58785 10.1047C9.09108 10.1806 8.59432 10.2635 8.09636 10.3299C7.82183 10.3666 7.6198 10.4733 7.53423 10.7506C7.44628 11.0339 7.54611 11.2543 7.74577 11.4522C8.11538 11.8185 8.48617 12.1835 8.84745 12.5568C9.35848 13.0866 9.58785 13.7207 9.48921 14.4531C9.40483 15.0801 9.29431 15.7011 9.20755 16.2451Z" fill="white"></path><path d="M12.2836 0.0720868C14.4585 0.0554944 16.5133 0.531933 18.4338 1.56066C18.7749 1.74318 18.9508 2.02525 18.9032 2.41043C18.8604 2.75768 18.6584 2.9959 18.3197 3.10375C18.063 3.18553 17.8253 3.12035 17.5948 2.99827C16.4182 2.37606 15.1692 1.98377 13.8464 1.82258C11.63 1.55118 9.52882 1.93043 7.537 2.92835C7.3825 3.00539 7.22444 3.08953 7.05925 3.1239C6.65637 3.20686 6.27963 2.97339 6.13583 2.57991C5.99797 2.20184 6.15128 1.79058 6.52801 1.58437C7.46807 1.07119 8.45566 0.662302 9.50387 0.445416C10.4178 0.255788 11.3483 0.145567 12.2717 0.000976562C12.2753 0.0234948 12.2801 0.0471982 12.2836 0.0720868Z" fill="white"></path><path d="M12.4367 25.0001C10.4044 24.9823 8.41973 24.5035 6.56576 23.5068C6.21517 23.3183 6.04285 23.0185 6.09514 22.6582C6.14506 22.3121 6.34353 22.0739 6.68104 21.9661C6.93775 21.8843 7.17543 21.9518 7.40599 22.0727C8.46489 22.6298 9.5844 23.0078 10.7681 23.1927C13.1426 23.5649 15.3959 23.1963 17.5315 22.1024C17.7775 21.9767 18.0235 21.8772 18.3016 21.9601C18.6415 22.0609 18.8435 22.2979 18.9006 22.6416C18.96 22.9936 18.7889 23.3124 18.4454 23.4997C17.5208 24.0034 16.5427 24.3755 15.5195 24.628C14.5319 24.8745 13.5253 24.9918 12.4367 25.0001Z" fill="white"></path><path d="M0.000479515 12.7123C-0.0173471 10.5885 0.461594 8.5476 1.48365 6.63948C1.67974 6.27207 1.98042 6.10497 2.35002 6.14763C2.67566 6.18437 3.00485 6.43444 3.03932 6.76155C3.06309 6.99503 3.01793 7.26762 2.91215 7.47621C2.37973 8.53575 1.99468 9.63915 1.81047 10.8101C1.44443 13.139 1.79621 15.3552 2.8563 17.4613C2.90265 17.5537 2.95375 17.645 2.99535 17.7398C3.18668 18.1819 3.02624 18.6346 2.6091 18.8408C2.20622 19.0399 1.72253 18.9084 1.52049 18.4829C1.19248 17.7896 0.872794 17.0868 0.616091 16.365C0.200137 15.2 0.0349442 13.984 0.000479515 12.7123Z" fill="white"></path><path d="M24.9994 12.6045C24.9804 14.63 24.5003 16.6009 23.5091 18.4427C23.3154 18.8029 23.0016 18.9795 22.6368 18.9191C22.2909 18.8622 22.0556 18.6595 21.9534 18.3218C21.8726 18.0551 21.9582 17.8133 22.0842 17.5763C22.6617 16.4895 23.0408 15.3351 23.2144 14.118C23.5388 11.8424 23.1858 9.67357 22.1495 7.61849C22.0984 7.51775 22.0437 7.41938 21.9998 7.31627C21.8168 6.88487 21.9736 6.4428 22.3813 6.23421C22.7818 6.02799 23.2726 6.15243 23.4734 6.57435C23.8133 7.29138 24.1485 8.0167 24.4064 8.76455C24.8259 9.98527 24.9923 11.2546 24.9994 12.6045Z" fill="white"></path><path d="M19.0916 6.92143C18.621 6.88706 18.3583 6.72114 18.2157 6.40114C18.0671 6.06693 18.1301 5.75404 18.388 5.49449C18.9739 4.90309 19.5658 4.31761 20.154 3.73095C21.1357 2.752 22.1138 1.76831 23.1026 0.795285C23.5851 0.318846 24.3552 0.540473 24.512 1.19232C24.5893 1.51705 24.4693 1.78135 24.2363 2.01127C23.1049 3.13481 21.9759 4.2631 20.8469 5.38901C20.4298 5.805 20.0233 6.23285 19.5895 6.63107C19.4279 6.77921 19.2009 6.85981 19.0916 6.92143Z" fill="white"></path><path d="M23.6509 24.5924C23.4679 24.4905 23.2504 24.4229 23.1066 24.2819C21.5271 22.7234 19.9572 21.1554 18.3885 19.585C18.045 19.2413 18.0521 18.759 18.3825 18.4236C18.7189 18.0811 19.2156 18.0692 19.5674 18.4188C21.1421 19.9821 22.7132 21.5501 24.2819 23.1192C24.5398 23.3776 24.6004 23.6881 24.4626 24.0271C24.3366 24.3352 24.0157 24.5402 23.6509 24.5924Z" fill="white"></path><path d="M0.457031 23.5872C0.505757 23.4947 0.566368 23.2719 0.706603 23.1297C2.27534 21.5475 3.85359 19.9759 5.43421 18.4068C5.77648 18.0678 6.26493 18.0773 6.59888 18.408C6.93283 18.7374 6.95066 19.2317 6.61314 19.5706C5.04084 21.1481 3.4614 22.7196 1.88197 24.29C1.62289 24.5472 1.30558 24.61 0.971625 24.4618C0.654312 24.322 0.479612 24.0636 0.457031 23.5872Z" fill="white"></path><path d="M0.468871 1.2466C0.476002 1.01787 0.647137 0.758314 0.963262 0.611352C1.27226 0.466762 1.57412 0.512983 1.83795 0.73461C1.93778 0.817572 2.02573 0.914756 2.11724 1.00601C3.59684 2.48037 5.07645 3.95472 6.55487 5.43026C6.9423 5.81662 6.96012 6.29662 6.6131 6.6498C6.29103 6.97691 5.80972 6.9935 5.46507 6.68891C5.42585 6.65454 5.3902 6.61661 5.35335 6.57987C3.82978 5.06286 2.30857 3.54347 0.784996 2.02882C0.5996 1.84393 0.464118 1.64364 0.468871 1.2466Z" fill="white"></path></g><defs><clipPath id="clip0_8577_3961"><rect width="25" height="25" fill="white"></rect></clipPath></defs></svg>